<?xml version="1.0" encoding="UTF-8"?>
<!-- Generator: visioncortex VTracer 0.6.3 -->
<svg version="1.1" xmlns="http://www.w3.org/2000/svg" width="1280" height="852">
<path d="M0 0 C422.4 0 844.8 0 1280 0 C1280 281.16 1280 562.32 1280 852 C857.6 852 435.2 852 0 852 C0 570.84 0 289.68 0 0 Z " fill="#FAFAF2" transform="translate(0,0)"/>
<path d="M0 0 C2.07 -0 4.13 -0 6.2 -0.01 C13.47 -0.01 20.73 -0.02 28 -0.02 C34.68 -0.02 41.37 -0.03 48.06 -0.04 C53.89 -0.06 59.72 -0.06 65.55 -0.06 C68.99 -0.06 72.43 -0.06 75.88 -0.07 C140.08 -0.24 140.08 -0.24 164.2 21.17 C164.8 21.68 165.4 22.18 166.02 22.71 C183.61 38.72 189.89 65.36 191.2 88.17 C192.45 115.74 189.18 146.21 170.01 167.6 C160.88 176.89 150.61 184.01 138.2 188.17 C137.12 188.53 136.04 188.9 134.93 189.28 C117.45 194.76 99.28 194.54 81.13 194.79 C78.8 194.83 76.47 194.87 74.14 194.91 C68.49 195 62.84 195.09 57.2 195.17 C57.17 210.4 57.16 225.64 57.14 240.88 C57.14 247.95 57.13 255.03 57.12 262.1 C57.11 268.93 57.1 275.75 57.1 282.57 C57.1 285.18 57.1 287.78 57.09 290.39 C57.08 294.03 57.08 297.67 57.08 301.31 C57.08 302.4 57.08 303.49 57.07 304.62 C57.07 306.1 57.07 306.1 57.08 307.61 C57.07 308.47 57.07 309.33 57.07 310.22 C56.98 312.17 56.98 312.17 58.2 313.17 C59.89 313.28 61.59 313.31 63.29 313.33 C64.39 313.34 65.5 313.35 66.63 313.36 C68.47 313.36 68.47 313.36 70.34 313.37 C71.61 313.38 72.89 313.39 74.21 313.4 C77.72 313.43 81.24 313.45 84.75 313.47 C88.42 313.49 92.09 313.52 95.76 313.55 C102.71 313.6 109.66 313.64 116.61 313.68 C124.53 313.73 132.44 313.79 140.35 313.84 C156.63 313.96 172.91 314.07 189.2 314.17 C192.51 320.12 190.68 326.78 189.2 333.17 C183.78 351.75 171.73 367.95 154.93 377.75 C140.67 385.17 126.7 387.64 110.77 387.54 C109.4 387.54 108.03 387.55 106.66 387.55 C103 387.56 99.34 387.55 95.67 387.54 C91.82 387.53 87.97 387.53 84.12 387.53 C77.68 387.53 71.23 387.52 64.79 387.5 C57.33 387.48 49.88 387.48 42.43 387.49 C35.24 387.49 28.05 387.49 20.86 387.47 C17.8 387.47 14.75 387.47 11.69 387.47 C8.11 387.47 4.52 387.46 0.94 387.45 C-1.01 387.44 -2.95 387.45 -4.9 387.45 C-6.05 387.44 -7.2 387.44 -8.39 387.43 C-9.39 387.43 -10.39 387.42 -11.43 387.42 C-13.8 387.17 -13.8 387.17 -15.8 385.17 C-16.01 382.66 -16.08 380.27 -16.08 377.76 C-16.08 376.6 -16.08 376.6 -16.09 375.42 C-16.11 372.81 -16.11 370.21 -16.11 367.61 C-16.11 365.75 -16.12 363.89 -16.13 362.02 C-16.15 358.01 -16.16 354 -16.17 349.98 C-16.18 343.65 -16.21 337.31 -16.23 330.97 C-16.28 320.95 -16.31 310.92 -16.34 300.9 C-16.39 282.94 -16.45 264.99 -16.52 247.03 C-16.55 240.72 -16.57 234.41 -16.58 228.1 C-16.59 224.19 -16.61 220.27 -16.62 216.35 C-16.63 214.53 -16.63 212.71 -16.63 210.88 C-16.64 208.41 -16.65 205.93 -16.66 203.45 C-16.66 202.35 -16.66 202.35 -16.66 201.23 C-16.39 197.92 -16.39 197.92 -17.8 195.17 C-20.1 195.08 -22.39 195.06 -24.68 195.07 C-25.37 195.07 -26.06 195.07 -26.76 195.07 C-28.96 195.08 -31.17 195.09 -33.37 195.1 C-34.86 195.11 -36.34 195.11 -37.83 195.12 C-41.49 195.13 -45.15 195.15 -48.8 195.17 C-48.81 196.15 -48.81 197.12 -48.82 198.13 C-48.92 221.9 -49.03 245.67 -49.14 269.43 C-49.2 280.93 -49.25 292.42 -49.3 303.92 C-49.34 313.93 -49.39 323.94 -49.44 333.96 C-49.47 339.26 -49.49 344.57 -49.51 349.87 C-49.53 354.86 -49.56 359.85 -49.58 364.84 C-49.59 366.67 -49.6 368.51 -49.61 370.35 C-49.62 372.84 -49.63 375.34 -49.65 377.83 C-49.65 378.57 -49.65 379.31 -49.65 380.07 C-49.69 385.05 -49.69 385.05 -50.8 386.17 C-67.49 388.43 -84.38 379.12 -97.8 370.17 C-97.8 369.51 -97.8 368.85 -97.8 368.17 C-98.67 367.86 -98.67 367.86 -99.55 367.54 C-102.62 365.67 -103.88 363.18 -105.8 360.17 C-106.76 359.21 -106.76 359.21 -107.75 358.24 C-118.16 347.75 -121.98 331 -121.92 316.74 C-121.92 315.9 -121.93 315.07 -121.93 314.21 C-121.93 311.42 -121.92 308.64 -121.92 305.85 C-121.92 303.85 -121.92 301.85 -121.92 299.85 C-121.92 294.42 -121.91 288.99 -121.91 283.57 C-121.9 277.89 -121.9 272.22 -121.9 266.55 C-121.89 255.81 -121.89 245.06 -121.88 234.32 C-121.86 222.09 -121.86 209.86 -121.85 197.63 C-121.84 172.48 -121.83 147.32 -121.8 122.17 C-23.92 121.05 -23.92 121.05 13.13 121.14 C15.01 121.14 15.01 121.14 16.92 121.15 C27.88 121.17 38.84 121.21 49.8 121.26 C56.01 121.29 62.23 121.31 68.45 121.32 C71.82 121.33 75.19 121.35 78.56 121.37 C97.49 122.24 97.49 122.24 113.67 114.12 C118.41 108.06 117.92 100.43 117.44 93.11 C116.69 87.12 113.63 82.15 109.2 78.17 C103.42 74.31 98.94 73.87 92.17 73.89 C91.26 73.88 90.35 73.88 89.41 73.87 C86.35 73.85 83.3 73.85 80.25 73.85 C78.06 73.84 75.87 73.83 73.69 73.82 C67.74 73.79 61.8 73.78 55.86 73.76 C49.65 73.75 43.44 73.72 37.23 73.69 C26.15 73.65 15.06 73.61 3.97 73.58 C-6.1 73.56 -16.16 73.52 -26.23 73.48 C-26.89 73.48 -27.55 73.48 -28.24 73.48 C-31.56 73.46 -34.88 73.45 -38.2 73.44 C-65.73 73.34 -93.27 73.25 -120.8 73.17 C-124.13 66.51 -120.94 56.77 -118.8 50.17 C-110.59 30.61 -97.8 14.44 -77.93 5.94 C-67.35 1.87 -57.42 0.8 -46.17 0.55 C-44.75 0.52 -43.32 0.48 -41.9 0.44 C-27.94 0.08 -13.97 0 0 0 Z " fill="#FA829F" transform="translate(602.8038251399994,232.83274292945862)"/>
<path d="M0 0 C28.05 0 56.1 0 85 0 C85 0.66 85 1.32 85 2 C89.95 2 94.9 2 100 2 C100 3.65 100 5.3 100 7 C100.66 7 101.32 7 102 7 C103.55 24.15 102.11 40.02 99.38 56.93 C99 59.99 98.93 62.92 99 66 C99.66 66.33 100.32 66.66 101 67 C92.89 69.12 85.21 71.05 76.79 71.02 C75.44 71.02 75.44 71.02 74.07 71.01 C73.39 71.01 72.7 71 72 71 C72 71.99 72 72.98 72 74 C72.02 98.01 72.04 122.03 72.05 146.05 C72.06 157.66 72.06 169.28 72.08 180.89 C72.09 191.01 72.09 201.13 72.09 211.25 C72.1 216.61 72.1 221.97 72.11 227.34 C72.11 232.38 72.11 237.42 72.11 242.46 C72.11 244.31 72.12 246.17 72.12 248.02 C72.12 250.55 72.12 253.07 72.12 255.59 C72.12 256.33 72.13 257.08 72.13 257.85 C72.11 262.89 72.11 262.89 71 264 C54.31 266.26 37.42 256.95 24 248 C24 247.34 24 246.68 24 246 C23.42 245.79 22.85 245.59 22.25 245.38 C19.18 243.5 17.93 241.01 16 238 C15.36 237.36 14.72 236.73 14.06 236.07 C3.64 225.58 -0.17 208.83 -0.12 194.57 C-0.12 193.74 -0.12 192.9 -0.12 192.04 C-0.12 189.26 -0.12 186.47 -0.11 183.68 C-0.11 181.68 -0.11 179.68 -0.11 177.68 C-0.11 172.25 -0.11 166.83 -0.1 161.4 C-0.1 155.73 -0.09 150.05 -0.09 144.38 C-0.09 133.64 -0.08 122.9 -0.07 112.16 C-0.06 99.93 -0.06 87.7 -0.05 75.47 C-0.04 50.31 -0.02 25.16 0 0 Z " fill="#B25488" transform="translate(481,355)"/>
<path d="M0 0 C23.82 -0.1 47.64 -0.14 71.46 0.32 C73.45 0.36 75.43 0.39 77.41 0.42 C80.17 0.47 82.93 0.52 85.68 0.59 C86.5 0.6 87.32 0.61 88.16 0.62 C93.77 0.77 93.77 0.77 96 3 C96.2 6.26 96.2 6.26 96.12 10.12 C96.11 11.41 96.09 12.69 96.07 14.01 C96.05 15 96.02 15.98 96 17 C96.66 17.33 97.32 17.66 98 18 C102.74 29.1 99.83 43.5 98 55 C97.77 56.68 97.77 56.68 97.53 58.39 C96.73 63.86 95.73 68.13 93 73 C92.13 76.44 91.9 79.59 91.97 83.12 C91.98 84.08 92 85.03 92.01 86.02 C92.04 88.01 92.08 89.99 92.13 91.98 C92.14 92.94 92.15 93.89 92.16 94.88 C92.18 95.74 92.19 96.6 92.21 97.49 C91.97 100.3 91.05 102.4 90 105 C90.33 105.66 90.66 106.32 91 107 C91.09 108.68 91.12 110.36 91.11 112.04 C91.11 113.62 91.11 113.62 91.11 115.23 C91.11 116.37 91.1 117.51 91.1 118.68 C91.1 119.85 91.09 121.02 91.09 122.22 C91.09 125.96 91.08 129.7 91.06 133.44 C91.06 135.96 91.05 138.48 91.05 140.99 C91.04 146.54 91.02 152.09 91.01 157.64 C91 161.08 91.14 164.34 91.56 167.75 C91.9 170.89 91.97 173.17 91.44 176.31 C90.77 181.93 91.38 187.58 93 193 C94.3 194.04 95.63 195.05 97 196 C97.43 201.19 96.74 205.85 96 211 C95.68 215.76 95.88 219.65 98 224 C100.44 229.36 100.58 234.18 100 240 C99 242.33 98 244.67 97 247 C96.57 251.96 96.33 257.24 98 262 C99.98 263.28 99.98 263.28 102 264 C102 264.33 102 264.66 102 265 C91.73 265.18 81.47 265.34 71.2 265.49 C66.44 265.57 61.67 265.64 56.9 265.72 C52.31 265.8 47.71 265.87 43.11 265.94 C41.36 265.96 39.6 265.99 37.84 266.03 C35.39 266.07 32.93 266.11 30.48 266.14 C29.75 266.15 29.02 266.17 28.26 266.19 C26.51 266.2 24.75 266.11 23 266 C20.54 263.54 20.76 262.16 20.72 258.8 C20.72 258.07 20.73 257.34 20.73 256.59 C20.72 255.82 20.72 255.05 20.71 254.25 C20.7 251.65 20.7 249.04 20.7 246.44 C20.69 244.58 20.68 242.72 20.67 240.86 C20.65 236.84 20.64 232.83 20.63 228.82 C20.62 222.48 20.6 216.14 20.57 209.8 C20.53 199.78 20.5 189.76 20.47 179.74 C20.42 161.78 20.35 143.82 20.28 125.86 C20.26 119.55 20.24 113.24 20.22 106.93 C20.21 103.02 20.2 99.1 20.18 95.19 C20.18 93.36 20.17 91.54 20.17 89.72 C20.17 87.24 20.16 84.76 20.14 82.28 C20.15 81.19 20.15 81.19 20.15 80.07 C20.41 76.75 20.41 76.75 19 74 C16.62 73.91 14.28 73.88 11.9 73.9 C11.19 73.9 10.48 73.91 9.75 73.91 C7.48 73.91 5.21 73.92 2.94 73.94 C1.4 73.94 -0.14 73.95 -1.67 73.95 C-5.45 73.96 -9.22 73.98 -13 74 C-13 73.34 -13 72.68 -13 72 C-12.32 71.92 -11.65 71.84 -10.95 71.76 C-7.88 71.39 -4.82 71.01 -1.75 70.62 C-0.69 70.5 0.38 70.37 1.47 70.24 C2.5 70.11 3.52 69.98 4.58 69.85 C5.52 69.74 6.46 69.62 7.43 69.5 C9.95 69.01 11.79 68.26 14 67 C13.8 65.95 13.59 64.9 13.38 63.82 C12.62 57.74 13.93 51.93 14.94 45.94 C16.95 33.2 17.49 20.87 17 8 C16.01 8.33 15.02 8.66 14 9 C14.33 7.02 14.66 5.04 15 3 C10.05 3 5.1 3 0 3 C0 2.01 0 1.02 0 0 Z " fill="#E16791" transform="translate(566,354)"/>
<path d="M0 0 C5.06 0.06 10.11 0.11 15.17 0.15 C19.1 0.19 23.03 0.23 26.96 0.28 C28.83 0.3 30.7 0.32 32.57 0.33 C35.15 0.35 37.72 0.39 40.3 0.42 C41.07 0.43 41.83 0.43 42.62 0.43 C47.87 0.53 47.87 0.53 50.1 2.76 C50.77 5.37 50.77 5.37 51.29 8.51 C51.46 9.53 51.64 10.56 51.83 11.62 C52.12 14.96 51.94 17.52 51.1 20.76 C50.34 21.65 50.34 21.65 49.57 22.56 C47.62 25.47 47.77 27.37 47.84 30.85 C47.85 32.05 47.87 33.24 47.88 34.48 C47.91 35.72 47.94 36.97 47.97 38.26 C48.43 63.64 48.43 63.64 44.1 71.76 C43.1 72.76 43.1 72.76 40.24 72.88 C38.95 72.88 37.66 72.88 36.33 72.88 C35.62 72.88 34.9 72.88 34.17 72.88 C31.75 72.88 29.34 72.88 26.92 72.87 C25.2 72.87 23.47 72.87 21.75 72.87 C17.05 72.87 12.36 72.87 7.66 72.86 C2.76 72.85 -2.15 72.85 -7.05 72.85 C-16.34 72.85 -25.63 72.84 -34.92 72.83 C-45.49 72.82 -56.06 72.81 -66.63 72.81 C-88.39 72.8 -110.15 72.78 -131.9 72.76 C-135.23 66.1 -132.04 56.36 -129.9 49.76 C-121.69 30.2 -108.9 14.03 -89.03 5.53 C-78.77 1.58 -69.12 0.39 -58.21 0.11 C-57.19 0.09 -57.19 0.09 -56.16 0.06 C-37.44 -0.46 -18.72 -0.23 0 0 Z " fill="#B25488" transform="translate(613.90185546875,233.241943359375)"/>
<path d="M0 0 C16.41 -1.39 33.61 5.85 46.05 16.27 C46.7 16.84 47.34 17.41 48 18 C48.6 18.51 49.2 19.02 49.82 19.54 C67.42 35.56 73.7 62.19 75 85 C76.25 112.57 72.99 143.04 53.81 164.44 C40.82 177.64 25.99 184.71 8 189 C7.01 189 6.02 189 5 189 C5 188.34 5 187.68 5 187 C8.63 186.01 12.26 185.02 16 184 C15.72 181.9 15.72 181.9 15.44 179.75 C14.87 175.49 14.87 175.49 15.46 173.17 C16.26 169.94 16.13 166.82 16.12 163.5 C16.13 162.19 16.13 160.88 16.13 159.53 C16.03 156.72 15.71 154.66 15 152 C14.88 150.15 14.83 148.29 14.81 146.44 C14.8 145.49 14.78 144.54 14.77 143.56 C15 141 15 141 17 138 C17.28 134.6 17.28 134.6 17.19 130.88 C17.18 129.61 17.17 128.35 17.17 127.05 C17.35 124.13 17.35 124.13 16 123 C15.98 121.44 16.04 119.87 16.12 118.31 C16.17 117.36 16.22 116.42 16.27 115.45 C16.32 114.45 16.38 113.46 16.44 112.44 C16.49 111.44 16.54 110.44 16.6 109.42 C16.73 106.94 16.86 104.47 17 102 C16.34 102 15.68 102 15 102 C11.14 86.14 11.14 86.14 13.44 80.44 C13.95 79.63 14.47 78.83 15 78 C15.66 78 16.32 78 17 78 C17.14 76.78 17.29 75.57 17.44 74.31 C17.83 71.17 18.32 68.09 19 65 C19.66 65 20.32 65 21 65 C20.86 63.27 20.71 61.54 20.56 59.81 C20.48 58.85 20.4 57.89 20.32 56.89 C20.05 54.05 20.05 54.05 19.5 51.51 C17.18 39.87 16.55 26.41 19.62 14.91 C20.17 12.12 19.7 9.72 19 7 C12.71 4.86 6.38 2.88 0 1 C0 0.67 0 0.34 0 0 Z " fill="#FB97A9" transform="translate(719,236)"/>
<path d="M0 0 C4.18 -0.12 8.36 -0.21 12.54 -0.27 C13.96 -0.3 15.38 -0.33 16.81 -0.38 C18.85 -0.44 20.9 -0.47 22.95 -0.49 C24.18 -0.51 25.41 -0.54 26.68 -0.57 C30.92 0.16 32.4 1.64 35 5 C35 5.99 35 6.98 35 8 C35.78 8.25 36.57 8.5 37.38 8.75 C40.39 10.19 40.72 11.05 42 14 C41.08 14.2 41.08 14.2 40.14 14.41 C35.74 15.58 33.55 16.18 30.94 20.06 C29.57 24.56 28.84 29.42 30 34 C30.98 35.2 31.98 36.39 33 37.56 C36.61 42.28 36.82 46.03 36.66 51.83 C36.65 53.2 36.65 53.2 36.64 54.59 C36.63 56.5 36.6 58.42 36.56 60.33 C36.5 63.26 36.48 66.18 36.47 69.11 C36.45 70.97 36.43 72.84 36.41 74.7 C36.39 76.01 36.39 76.01 36.38 77.35 C36.36 78.16 36.34 78.98 36.32 79.82 C36.31 80.53 36.29 81.24 36.28 81.98 C35.96 84.31 35.15 85.96 34 88 C32.68 88 31.36 88 30 88 C29.68 97.09 29.68 97.09 31 106 C31.85 106.62 32.69 107.24 33.56 107.88 C36 110 36 110 36.4 112.14 C36.47 116.35 36.4 118.4 34 122 C33.01 122.33 32.02 122.66 31 123 C29.86 126.42 29.9 129.09 29.94 132.69 C29.95 133.87 29.96 135.05 29.96 136.26 C29.98 137.17 29.99 138.07 30 139 C30.8 139.27 31.61 139.54 32.44 139.81 C33.28 140.2 34.13 140.6 35 141 C36.17 144.52 36.15 147.35 36.19 151.06 C36.2 151.78 36.21 152.5 36.21 153.23 C36.23 154.79 36.25 156.35 36.26 157.9 C36.28 160.38 36.31 162.86 36.34 165.34 C36.4 170.62 36.45 175.9 36.5 181.19 C36.56 187.27 36.62 193.35 36.69 199.43 C36.72 201.85 36.74 204.26 36.76 206.68 C36.35 222.65 36.35 222.65 38.66 238.24 C39 240 39 240 37.06 243.25 C36.38 244.16 35.7 245.07 35 246 C29.51 245.65 25.65 245.15 21 242 C20.01 242 19.02 242 18 242 C17.75 241.42 17.5 240.85 17.25 240.25 C16.09 237.91 16.09 237.91 14.11 236.13 C3.68 225.58 -0.17 208.89 -0.12 194.57 C-0.12 193.74 -0.12 192.9 -0.12 192.04 C-0.12 189.26 -0.12 186.47 -0.11 183.68 C-0.11 181.68 -0.11 179.68 -0.11 177.68 C-0.11 172.25 -0.11 166.83 -0.1 161.4 C-0.1 155.73 -0.09 150.05 -0.09 144.38 C-0.09 133.64 -0.08 122.9 -0.07 112.16 C-0.06 99.93 -0.06 87.7 -0.05 75.47 C-0.04 50.31 -0.02 25.16 0 0 Z " fill="#A5538A" transform="translate(481,355)"/>
<path d="M0 0 C16.17 0 32.34 0 49 0 C49 0.66 49 1.32 49 2 C48.01 2.33 47.02 2.66 46 3 C45.98 7.81 45.96 12.61 45.95 17.42 C45.94 19.05 45.93 20.69 45.92 22.32 C45.91 24.67 45.91 27.02 45.9 29.37 C45.9 30.1 45.89 30.83 45.89 31.59 C45.82 35.42 45.82 35.42 47 39 C46.53 39.68 46.05 40.36 45.56 41.06 C43.42 45.08 43.74 48.54 44 53 C44.66 53 45.32 53 46 53 C47.62 56.24 47.14 59.76 47.12 63.31 C47.13 64.45 47.13 64.45 47.14 65.62 C47.14 66.36 47.13 67.1 47.13 67.86 C47.13 68.54 47.13 69.21 47.13 69.9 C47 72 47 72 46.5 74.18 C45.9 77.58 45.87 80.79 45.87 84.24 C45.87 84.96 45.87 85.68 45.87 86.42 C45.86 88.82 45.87 91.23 45.87 93.63 C45.87 95.35 45.87 97.08 45.87 98.8 C45.86 103.49 45.86 108.17 45.87 112.85 C45.87 117.75 45.87 122.65 45.86 127.55 C45.86 135.78 45.86 144.01 45.87 152.24 C45.88 161.76 45.87 171.27 45.87 180.78 C45.86 188.95 45.86 197.12 45.87 205.29 C45.87 210.17 45.87 215.05 45.86 219.92 C45.86 224.51 45.86 229.1 45.87 233.69 C45.87 235.37 45.87 237.05 45.87 238.73 C45.86 241.03 45.87 243.33 45.87 245.63 C45.87 246.92 45.87 248.2 45.87 249.53 C45.92 252.99 45.92 252.99 46.57 256.31 C47.06 259.34 46.65 260.47 45 263 C45.66 263.66 46.32 264.32 47 265 C43.04 265.23 39.08 265.43 35.12 265.62 C34 265.69 32.87 265.75 31.71 265.82 C30.09 265.9 30.09 265.9 28.45 265.98 C27.45 266.03 26.46 266.08 25.43 266.14 C23 266 23 266 21 264 C20.8 261.49 20.72 259.1 20.73 256.59 C20.72 255.82 20.72 255.05 20.71 254.25 C20.7 251.65 20.7 249.04 20.7 246.44 C20.69 244.58 20.68 242.72 20.67 240.86 C20.65 236.84 20.64 232.83 20.63 228.82 C20.62 222.48 20.6 216.14 20.57 209.8 C20.53 199.78 20.5 189.76 20.47 179.74 C20.42 161.78 20.35 143.82 20.28 125.86 C20.26 119.55 20.24 113.24 20.22 106.93 C20.21 103.02 20.2 99.1 20.18 95.19 C20.18 93.36 20.17 91.54 20.17 89.72 C20.17 87.24 20.16 84.76 20.14 82.28 C20.15 81.19 20.15 81.19 20.15 80.07 C20.41 76.75 20.41 76.75 19 74 C16.62 73.91 14.28 73.88 11.9 73.9 C11.19 73.9 10.48 73.91 9.75 73.91 C7.48 73.91 5.21 73.92 2.94 73.94 C1.4 73.94 -0.14 73.95 -1.67 73.95 C-5.45 73.96 -9.22 73.98 -13 74 C-13 73.34 -13 72.68 -13 72 C-12.32 71.92 -11.65 71.84 -10.95 71.76 C-7.88 71.39 -4.82 71.01 -1.75 70.62 C-0.69 70.5 0.38 70.37 1.47 70.24 C2.5 70.11 3.52 69.98 4.58 69.85 C5.52 69.74 6.46 69.62 7.43 69.5 C9.95 69.01 11.79 68.26 14 67 C13.8 65.95 13.59 64.9 13.38 63.82 C12.62 57.74 13.93 51.93 14.94 45.94 C16.95 33.2 17.49 20.87 17 8 C16.01 8.33 15.02 8.66 14 9 C14.33 7.02 14.66 5.04 15 3 C10.05 3 5.1 3 0 3 C0 2.01 0 1.02 0 0 Z " fill="#D3618E" transform="translate(566,354)"/>
<path d="M0 0 C11.44 0.08 22.88 0.18 34.32 0.29 C39.63 0.34 44.94 0.38 50.25 0.42 C55.37 0.46 60.5 0.5 65.62 0.56 C67.58 0.58 69.53 0.59 71.49 0.6 C74.23 0.62 76.96 0.65 79.69 0.68 C80.92 0.68 80.92 0.68 82.17 0.69 C87.77 0.77 87.77 0.77 90 3 C90.67 5.61 90.67 5.61 91.19 8.75 C91.37 9.78 91.55 10.8 91.73 11.86 C92.02 15.2 91.84 17.76 91 21 C90.24 21.89 90.24 21.89 89.47 22.8 C87.52 25.72 87.67 27.61 87.74 31.09 C87.76 32.29 87.77 33.49 87.79 34.72 C87.81 35.97 87.84 37.21 87.88 38.5 C88.33 63.88 88.33 63.88 84 72 C82.16 73.84 79.55 73.12 77.1 73.12 C76.25 73.12 75.41 73.12 74.53 73.11 C73.65 73.11 72.76 73.11 71.84 73.11 C68.89 73.11 65.95 73.11 63 73.1 C60.96 73.1 58.92 73.09 56.88 73.09 C51.5 73.09 46.12 73.08 40.75 73.07 C35.26 73.06 29.78 73.05 24.3 73.05 C13.53 73.04 2.77 73.02 -8 73 C-8 72.67 -8 72.34 -8 72 C-7.23 71.97 -6.46 71.95 -5.66 71.92 C-4.66 71.87 -3.66 71.81 -2.62 71.75 C-1.63 71.7 -0.63 71.66 0.4 71.61 C3.06 71.28 3.06 71.28 4.22 69.4 C9.3 54.92 9.3 54.92 7.98 40.06 C6.34 34.53 6.79 28.77 6.88 23.06 C6.88 21.9 6.89 20.74 6.9 19.54 C6.93 16.7 6.96 13.85 7 11 C6.34 10.67 5.68 10.34 5 10 C5.33 9.34 5.66 8.68 6 8 C4.68 8.33 3.36 8.66 2 9 C0.5 5.63 0 3.8 0 0 Z " fill="#E16791" transform="translate(574,233)"/>
<path d="M0 0 C1.04 -0.01 2.08 -0.02 3.15 -0.04 C4.14 -0.04 5.13 -0.04 6.15 -0.04 C7.05 -0.05 7.94 -0.05 8.87 -0.06 C11.06 0.19 11.06 0.19 13.06 2.19 C13.26 5.45 13.26 5.45 13.19 9.31 C13.17 10.59 13.15 11.88 13.13 13.2 C13.11 14.18 13.09 15.17 13.06 16.19 C13.72 16.52 14.38 16.85 15.06 17.19 C19.8 28.29 16.9 42.68 15.06 54.19 C14.83 55.87 14.83 55.87 14.59 57.58 C13.79 63.05 12.79 67.32 10.06 72.19 C9.2 75.63 8.96 78.77 9.04 82.31 C9.05 83.27 9.06 84.22 9.07 85.2 C9.11 87.19 9.15 89.18 9.19 91.17 C9.2 92.13 9.21 93.08 9.22 94.06 C9.24 94.93 9.26 95.79 9.27 96.68 C9.04 99.49 8.11 101.59 7.06 104.19 C7.56 105.18 7.56 105.18 8.06 106.19 C8.15 107.87 8.18 109.55 8.18 111.23 C8.18 112.28 8.18 113.33 8.18 114.42 C8.17 115.56 8.17 116.7 8.16 117.87 C8.16 119.04 8.16 120.2 8.16 121.41 C8.15 125.15 8.14 128.89 8.12 132.62 C8.12 135.14 8.12 137.66 8.11 140.18 C8.1 145.73 8.09 151.28 8.07 156.83 C8.06 160.26 8.21 163.53 8.62 166.94 C8.96 170.08 9.03 172.36 8.5 175.5 C7.83 181.12 8.44 186.76 10.06 192.19 C11.36 193.23 12.69 194.24 14.06 195.19 C14.49 200.37 13.8 205.04 13.06 210.19 C12.74 214.95 12.95 218.84 15.06 223.19 C17.5 228.55 17.64 233.37 17.06 239.19 C16.06 241.52 15.06 243.85 14.06 246.19 C13.64 251.15 13.39 256.43 15.06 261.19 C17.05 262.47 17.05 262.47 19.06 263.19 C19.06 263.52 19.06 263.85 19.06 264.19 C10.81 264.19 2.56 264.19 -5.94 264.19 C-5.94 262.21 -5.94 260.23 -5.94 258.19 C-7.31 256.48 -7.31 256.48 -8.94 255.19 C-10.02 251.94 -10.07 249.55 -10.07 246.13 C-10.07 244.94 -10.07 243.75 -10.07 242.52 C-10.07 241.28 -10.07 240.03 -10.06 238.75 C-10.07 237.51 -10.07 236.27 -10.07 234.99 C-10.07 233.8 -10.07 232.61 -10.07 231.38 C-10.07 230.29 -10.07 229.2 -10.07 228.07 C-9.95 225.55 -9.55 223.61 -8.94 221.19 C-8.51 216.56 -8.24 211.91 -7.95 207.27 C-7.81 205 -7.66 202.73 -7.51 200.46 C-7.42 199.02 -7.33 197.58 -7.24 196.14 C-7.12 194.18 -7.12 194.18 -6.99 192.18 C-6.97 191.19 -6.96 190.2 -6.94 189.19 C-7.27 188.86 -7.6 188.53 -7.94 188.19 C-8.04 185.81 -8.07 183.46 -8.07 181.08 C-8.07 180.34 -8.07 179.6 -8.07 178.83 C-8.08 176.36 -8.07 173.89 -8.07 171.42 C-8.07 169.71 -8.07 168 -8.07 166.28 C-8.07 162.68 -8.07 159.09 -8.07 155.49 C-8.06 150.88 -8.07 146.27 -8.07 141.67 C-8.08 138.12 -8.07 134.58 -8.07 131.04 C-8.07 129.34 -8.07 127.64 -8.07 125.95 C-8.08 123.57 -8.07 121.19 -8.07 118.81 C-8.07 118.11 -8.07 117.41 -8.07 116.69 C-8.06 113.83 -7.94 111.21 -7.34 108.41 C-6.81 105.46 -7.98 103.83 -9.23 101.21 C-10.92 96.38 -10.62 91.04 -8.88 86.29 C-7.78 82.67 -8.01 80.34 -8.62 76.62 C-8.79 75.53 -8.96 74.44 -9.14 73.31 C-9.95 70.12 -11.21 67.95 -12.94 65.19 C-12.74 61.24 -11.22 58.38 -8.94 55.19 C-8.28 55.19 -7.62 55.19 -6.94 55.19 C-7.25 53.12 -7.56 51.06 -7.88 49 C-8.05 47.85 -8.22 46.7 -8.4 45.52 C-8.71 43.59 -9.06 41.66 -9.49 39.75 C-10.09 36.29 -10.13 32.87 -10.12 29.38 C-10.13 28.67 -10.13 27.96 -10.13 27.23 C-10.08 22.21 -9.52 17.93 -7.94 13.19 C-10.41 12.2 -10.41 12.2 -12.94 11.19 C-11.95 8.22 -10.96 5.25 -9.94 2.19 C-13.57 2.19 -17.2 2.19 -20.94 2.19 C-20.94 1.86 -20.94 1.53 -20.94 1.19 C-13.93 0.28 -7.06 0 0 0 Z " fill="#EC6D93" transform="translate(648.9375,354.8125)"/>
<path d="M0 0 C1.9 0 3.8 0 5.7 0 C10.64 0.01 15.57 0.02 20.5 0.03 C25.57 0.04 30.63 0.04 35.69 0.05 C45.57 0.06 55.45 0.08 65.33 0.1 C68.64 6.06 66.82 12.71 65.33 19.1 C59.91 37.68 47.86 53.88 31.06 63.68 C15.12 71.98 0.03 73.57 -17.61 73.29 C-19.27 73.27 -20.94 73.26 -22.6 73.24 C-26.63 73.21 -30.65 73.16 -34.67 73.1 C-34.67 72.77 -34.67 72.44 -34.67 72.1 C-28.07 72.1 -21.47 72.1 -14.67 72.1 C-15.04 66.64 -15.04 66.64 -15.42 61.18 C-15.46 60.5 -15.5 59.81 -15.55 59.11 C-15.59 58.41 -15.64 57.72 -15.69 57 C-15.67 55.1 -15.67 55.1 -14.67 52.1 C-14.98 49.76 -15.32 47.43 -15.67 45.1 C-15.76 42.63 -15.8 40.17 -15.8 37.7 C-15.8 36.69 -15.8 36.69 -15.8 35.66 C-15.8 34.25 -15.8 32.84 -15.8 31.43 C-15.79 29.27 -15.8 27.11 -15.8 24.95 C-15.8 23.58 -15.8 22.2 -15.8 20.83 C-15.8 19.58 -15.8 18.34 -15.8 17.06 C-15.67 14.1 -15.67 14.1 -14.67 12.1 C-15.71 6.66 -15.71 6.66 -19.67 3.1 C-21.89 2.73 -21.89 2.73 -24.34 2.68 C-25.23 2.64 -26.12 2.61 -27.04 2.57 C-27.97 2.54 -28.9 2.5 -29.86 2.47 C-30.8 2.43 -31.74 2.4 -32.71 2.36 C-35.03 2.26 -37.35 2.18 -39.67 2.1 C-39.67 1.77 -39.67 1.44 -39.67 1.1 C-26.43 0.27 -13.26 -0.04 0 0 Z " fill="#FB97A9" transform="translate(726.66796875,546.90234375)"/>
<path d="M0 0 C1.36 0.01 2.71 0.01 4.07 0.01 C7.36 0.03 10.65 0.04 13.94 0.06 C13.94 0.72 13.94 1.38 13.94 2.06 C18.89 2.06 23.84 2.06 28.94 2.06 C28.94 3.71 28.94 5.36 28.94 7.06 C29.6 7.06 30.26 7.06 30.94 7.06 C32.49 24.21 31.05 40.08 28.32 56.99 C27.94 60.05 27.87 62.98 27.94 66.06 C28.93 66.56 28.93 66.56 29.94 67.06 C21.83 69.18 14.15 71.12 5.73 71.08 C4.38 71.08 4.38 71.08 3.01 71.07 C2.32 71.07 1.64 71.07 0.94 71.06 C0.94 72.05 0.94 73.04 0.94 74.06 C0.96 98.08 0.98 122.09 0.99 146.11 C0.99 157.73 1 169.34 1.01 180.96 C1.02 191.08 1.03 201.19 1.03 211.31 C1.03 216.68 1.04 222.04 1.04 227.4 C1.05 232.44 1.05 237.48 1.05 242.52 C1.05 244.38 1.05 246.23 1.06 248.09 C1.06 250.61 1.06 253.13 1.06 255.65 C1.06 256.77 1.06 256.77 1.07 257.91 C1.05 262.95 1.05 262.95 -0.06 264.06 C-5.1 264.38 -10.16 264.37 -15.06 263.06 C-13.74 262.4 -12.42 261.74 -11.06 261.06 C-11.06 260.4 -11.06 259.74 -11.06 259.06 C-9.08 258.4 -7.1 257.74 -5.06 257.06 C-4.73 254.42 -4.4 251.78 -4.06 249.06 C-4.72 249.06 -5.38 249.06 -6.06 249.06 C-8.5 240.8 -8.33 232.71 -8.27 224.18 C-8.25 221.7 -8.25 219.22 -8.25 216.74 C-8.23 209.08 -8.11 201.53 -7.18 193.91 C-7.14 193.3 -7.1 192.69 -7.06 192.06 C-7.39 191.73 -7.72 191.4 -8.06 191.06 C-8.16 188.58 -8.2 186.13 -8.19 183.64 C-8.19 182.87 -8.2 182.09 -8.2 181.29 C-8.2 178.7 -8.2 176.11 -8.2 173.52 C-8.2 171.72 -8.2 169.91 -8.2 168.11 C-8.2 164.31 -8.2 160.52 -8.19 156.72 C-8.19 151.89 -8.19 147.06 -8.2 142.23 C-8.2 138.5 -8.2 134.77 -8.2 131.03 C-8.2 129.25 -8.2 127.48 -8.2 125.7 C-8.21 116.26 -8.05 106.95 -7.18 97.55 C-7.14 96.73 -7.1 95.91 -7.06 95.06 C-7.56 94.57 -7.56 94.57 -8.06 94.06 C-8.16 91.4 -8.2 88.76 -8.19 86.1 C-8.19 84.85 -8.19 84.85 -8.2 83.57 C-8.2 80.8 -8.2 78.03 -8.2 75.26 C-8.2 73.34 -8.2 71.42 -8.2 69.5 C-8.2 65.47 -8.2 61.44 -8.19 57.41 C-8.19 52.24 -8.19 47.07 -8.2 41.9 C-8.2 37.93 -8.2 33.96 -8.2 30 C-8.2 28.09 -8.2 26.18 -8.2 24.28 C-8.2 21.61 -8.2 18.95 -8.19 16.28 C-8.19 15.49 -8.2 14.7 -8.2 13.88 C-8.19 10.68 -8.08 8.13 -7.06 5.06 C-12.71 3.22 -18.15 2.51 -24.06 2.06 C-24.06 1.73 -24.06 1.4 -24.06 1.06 C-16.03 -0.06 -8.1 -0.05 0 0 Z " fill="#C05A8B" transform="translate(552.0625,354.9375)"/>
<path d="M0 0 C2.67 1.65 2.97 2.89 3.81 5.94 C5.41 10.06 7.09 11.01 11 13 C13.97 13.86 16.96 14.44 20 15 C20.57 15.15 21.15 15.29 21.74 15.45 C24.59 16.14 27.46 16.7 30.34 17.27 C31.57 17.52 32.8 17.77 34.06 18.03 C36.64 18.55 39.22 19.06 41.8 19.56 C43.03 19.82 44.26 20.07 45.53 20.33 C46.65 20.56 47.77 20.78 48.93 21.01 C52.36 22.12 54.38 23.55 57 26 C59.52 31.04 58.3 38.46 57.25 43.81 C53.58 53.16 53.58 53.16 49.76 55.18 C40.44 57.94 29.02 55.9 19.44 55.19 C18.4 55.12 17.37 55.05 16.3 54.98 C10.8 54.52 6.88 53.76 2 51 C-0.24 50.66 -0.24 50.66 -2.38 50.69 C-7.15 50.33 -9.61 48.36 -13.22 45.36 C-15.44 43.67 -17.24 43.23 -20 43 C-20.61 42.83 -21.22 42.66 -21.84 42.49 C-24.22 41.95 -26.3 41.92 -28.74 41.96 C-43.35 41.96 -43.35 41.96 -47.87 39.33 C-49.65 37.3 -50.85 35.44 -52 33 C-52.5 32.22 -52.99 31.43 -53.5 30.62 C-54.31 26.38 -53.61 22.25 -53 18 C-52.34 18 -51.68 18 -51 18 C-50.96 17.15 -50.92 16.31 -50.88 15.44 C-49.73 10.95 -47.59 7.92 -44 5 C-37.32 1.77 -29.38 2.58 -22.12 2.43 C-14.54 2.23 -7.42 -0.7 0 0 Z " fill="#FAFCFC" transform="translate(950,460)"/>
<path d="M0 0 C3.75 0.25 3.75 0.25 6.21 1.24 C12.49 3.03 19.05 2.65 25.54 2.73 C32.82 2.91 38.05 3.47 44 7.94 C46.41 11.13 47.62 14.46 48.75 18.25 C49 19.06 49.26 19.87 49.52 20.71 C50.93 26.09 50.93 29.44 48.28 34.36 C45.54 37.74 43.04 40.78 38.68 41.68 C36.32 41.82 33.99 41.84 31.62 41.81 C22.35 42 14.49 43.31 6.48 48.28 C2.44 50.64 -1.55 51.29 -6.12 51.94 C-11.09 52.27 -11.09 52.27 -15.25 54.25 C-18.85 54.77 -22.5 55.01 -26.12 55.31 C-27.13 55.4 -28.13 55.49 -29.16 55.59 C-49.55 57.34 -49.55 57.34 -55.25 53.25 C-57.7 49.59 -57.98 45.4 -58.5 41.12 C-58.6 40.4 -58.71 39.67 -58.81 38.92 C-59.05 37.04 -59.16 35.14 -59.25 33.25 C-58.59 32.59 -57.93 31.93 -57.25 31.25 C-56.99 30.45 -56.72 29.64 -56.45 28.82 C-54.08 23.74 -48.21 22.23 -43.25 20.25 C-31.25 16.22 -31.25 16.22 -25.56 16.27 C-22.87 16.25 -21.6 15.51 -19.25 14.25 C-16.42 13.44 -13.57 12.74 -10.71 12.03 C-8.1 11.41 -8.1 11.41 -6.25 9.25 C-6.08 8.1 -5.92 6.94 -5.75 5.75 C-5.1 1.21 -4.62 0.36 0 0 Z " fill="#FAFCFC" transform="translate(316.25,459.75)"/>
<path d="M0 0 C4.22 0.67 7.99 1.99 11.92 3.63 C12.55 3.88 13.18 4.13 13.83 4.38 C20.47 7.09 26.01 11.04 31.3 15.82 C31.3 16.48 31.3 17.14 31.3 17.82 C32.11 17.92 32.11 17.92 32.95 18.02 C36.32 19.17 38.28 21.27 40.86 23.7 C41.81 24.58 42.76 25.46 43.74 26.38 C45.62 28.17 47.46 29.98 49.3 31.82 C53.79 35.84 53.79 35.84 59.3 37.82 C63.57 40.37 66.84 43.27 70.3 46.82 C71.33 47.69 72.37 48.54 73.42 49.38 C77.32 52.69 79.08 54.95 80.3 59.82 C80.81 60.42 81.33 61.02 81.86 61.63 C84.01 64.91 83.81 66.96 83.3 70.82 C81.06 75.83 78.43 79.57 73.3 81.82 C71.31 82.52 69.31 83.19 67.3 83.82 C66.31 84.32 66.31 84.32 65.3 84.82 C58.77 85.63 54.62 84.52 49.3 80.82 C48.33 80.28 47.36 79.75 46.36 79.2 C42.6 76.28 40.11 72.9 37.32 69.06 C35.07 66.57 33.45 65.84 30.3 64.82 C24.27 61.93 19.96 57.85 15.1 53.3 C11.89 50.46 8.54 48.18 4.88 45.98 C4.36 45.59 3.83 45.21 3.3 44.82 C3.3 44.16 3.3 43.5 3.3 42.82 C2.46 42.73 2.46 42.73 1.61 42.63 C-5.22 40.23 -11.83 30.28 -14.99 24.01 C-16.26 20.1 -15.93 16.71 -14.7 12.82 C-12.94 9.68 -11.24 7.35 -8.7 4.82 C-8 3.93 -7.3 3.05 -6.58 2.13 C-3.7 -0.18 -3.7 -0.18 0 0 Z " fill="#FAFCFC" transform="translate(340.703125,169.1796875)"/>
<path d="M0 0 C6.61 2.85 11.66 6.96 15.81 12.81 C15.97 14.05 15.97 14.05 16.12 15.31 C17.14 19 19.68 20.14 22.74 22.27 C26.22 24.86 28.91 27.94 30.81 31.88 C32.7 35.53 35.4 38.27 39.25 39.75 C42.92 41.27 45.42 43.66 47.81 46.81 C48.15 48.48 48.49 50.14 48.81 51.81 C51.11 52.95 51.11 52.95 53.81 53.81 C57.69 56.43 59.4 58.36 60.81 62.81 C61.16 63.6 61.51 64.38 61.88 65.19 C64.66 72.98 64.66 72.98 62.75 77.12 C59.07 82.97 55.45 86.6 48.81 88.81 C43.2 89.28 38.1 88.89 32.81 86.81 C30.69 84.88 30.69 84.88 28.81 82.81 C27.99 82.34 27.16 81.86 26.31 81.38 C22.87 79.22 20.57 76.58 18.96 72.83 C17.53 70.31 16.05 69.47 13.56 68 C9.07 65.15 6.03 62 2.81 57.81 C2.03 56.88 1.25 55.96 0.44 55 C-1.19 52.81 -1.19 52.81 -1.19 50.81 C-2.55 50.47 -2.55 50.47 -3.94 50.12 C-8.26 48.38 -9.87 45.92 -12.3 42.04 C-15.42 37.23 -17.83 35.79 -23.19 33.81 C-25.39 32.15 -26.1 31.31 -26.59 28.57 C-26.51 20.16 -26.17 9.99 -20.75 3.12 C-14.72 -2.31 -7.58 -2.6 0 0 Z " fill="#FAFCFC" transform="translate(838.1875,614.1875)"/>
<path d="M0 0 C5.4 4.05 8.34 10.61 10 17 C9.39 25.69 2.59 34.01 -3.75 39.69 C-5.15 40.81 -6.57 41.91 -8 43 C-9.01 43.79 -10.03 44.58 -11.07 45.39 C-14.37 47.95 -17.68 50.48 -21 53 C-22.69 54.29 -24.38 55.58 -26.06 56.88 C-27.07 57.64 -27.07 57.64 -28.1 58.43 C-30.08 60 -30.08 60 -31.93 62.07 C-34 64 -34 64 -36.43 64.87 C-39.97 66.43 -41.83 69.07 -44.12 72.06 C-48.62 77.87 -48.62 77.87 -52 79 C-52.66 79.66 -53.32 80.32 -54 81 C-57.04 84.04 -59.92 84.22 -64.06 84.38 C-70.92 84.3 -76.66 82.14 -81.7 77.4 C-84.65 73.96 -86.15 71.49 -86.19 67 C-86.2 66.3 -86.22 65.6 -86.23 64.88 C-86 63 -86 63 -84 61 C-83.88 59.91 -83.75 58.81 -83.62 57.69 C-82.93 53.57 -81.97 51.89 -79 49 C-76.75 48.19 -76.75 48.19 -75 48 C-75 47.34 -75 46.68 -75 46 C-70.55 41.01 -65.68 37.03 -59.44 34.62 C-54.05 32.08 -51.25 27.87 -48 23 C-46.19 21.96 -46.19 21.96 -44 20.94 C-39.98 18.82 -37.27 16.38 -34.19 13.06 C-25.99 4.5 -12.21 -2.67 0 0 Z " fill="#FAFCFC" transform="translate(928,170)"/>
<path d="M0 0 C5.42 0.44 8.3 2.56 11.81 6.62 C12.47 7.51 13.13 8.4 13.81 9.31 C14.54 10.04 14.54 10.04 15.28 10.78 C19.85 15.47 20.73 19.08 21 25.5 C21.13 27.19 21.26 28.88 21.4 30.57 C21.49 31.79 21.49 31.79 21.59 33.04 C22.49 42.37 25.47 52.6 31.93 59.61 C34.34 63.07 34.4 66 34.44 70.06 C34.62 75.31 35.06 80.2 36.32 85.3 C38.6 94.62 38.6 94.62 36.31 99.56 C32.86 103.36 28.08 108.05 22.71 108.48 C15.87 108.53 10.31 107.48 3.81 105.31 C-0.68 99.16 -2.5 90.5 -2.19 82.94 C-2.19 78.61 -3.12 76.1 -5.19 72.31 C-6.05 71.53 -6.92 70.75 -7.81 69.94 C-10.79 66.65 -10.85 64.51 -11.05 60.2 C-10.98 58.3 -10.98 58.3 -12.19 57.31 C-12.23 54.98 -12.23 52.65 -12.19 50.31 C-12.85 50.31 -13.51 50.31 -14.19 50.31 C-14.29 49.7 -14.38 49.1 -14.48 48.47 C-15.47 42.7 -16.73 37.04 -18.19 31.38 C-22.8 13.07 -22.8 13.07 -21.48 9.31 C-20.01 7.02 -18.11 5.23 -16.19 3.31 C-14.18 2.88 -12.16 2.54 -10.12 2.25 C-6.39 1.71 -3.55 0.35 0 0 Z " fill="#FAFCFC" transform="translate(526.1875,47.6875)"/>
<path d="M0 0 C0 0.66 0 1.32 0 2 C1.08 2.06 1.08 2.06 2.19 2.12 C5.23 3.07 7.08 4.19 9.05 6.72 C11.5 12.62 11.02 21.06 8.97 26.96 C8.65 27.64 8.33 28.31 8 29 C7.34 29 6.68 29 6 29 C5.79 29.56 5.59 30.11 5.38 30.69 C2.65 35.26 -0.69 37.57 -5.62 39.19 C-6.74 39.46 -7.85 39.72 -9 40 C-11.83 41.08 -13.07 42.08 -15.19 44.31 C-20.75 49.63 -26.33 52.23 -34 53 C-34.99 53.66 -35.98 54.32 -37 55 C-37.71 55.45 -38.42 55.9 -39.16 56.37 C-39.93 56.86 -40.7 57.36 -41.5 57.88 C-42.27 58.37 -43.05 58.86 -43.84 59.37 C-46.07 60.89 -46.07 60.89 -47.48 63.03 C-49.35 65.45 -51.12 66.33 -53.88 67.62 C-54.72 68.03 -55.56 68.43 -56.43 68.85 C-57.28 69.23 -58.13 69.61 -59 70 C-59.8 70.38 -60.61 70.77 -61.44 71.16 C-64.55 72.18 -66.87 72.06 -70.12 71.75 C-71.16 71.66 -72.19 71.57 -73.26 71.48 C-76 71 -76 71 -79 69 C-81.33 68.92 -83.67 68.91 -86 69 C-86 68.34 -86 67.68 -86 67 C-86.93 66.72 -86.93 66.72 -87.88 66.44 C-90.44 64.7 -91.11 63.11 -91.82 60.12 C-92.18 55.9 -91.11 52.04 -90 48 C-89.73 46.78 -89.46 45.57 -89.19 44.31 C-86.15 39.71 -82.31 38.24 -77.43 35.84 C-73.22 33.58 -69.85 30.79 -66.32 27.6 C-63.54 25.68 -61.31 25.47 -58 25 C-56.29 23.38 -54.63 21.7 -53 20 C-47.36 15.48 -43.18 13.5 -36 13 C-35.34 12.34 -34.68 11.68 -34 11 C-33.01 11 -32.02 11 -31 11 C-30.67 10.01 -30.34 9.02 -30 8 C-28.36 6.96 -26.69 5.97 -25 5 C-22.97 3.46 -20.96 1.89 -18.96 0.3 C-13.15 -3.55 -6.19 -2.41 0 0 Z " fill="#FAFCFC" transform="translate(385,547)"/>
<path d="M0 0 C1.31 -0 1.31 -0 2.64 -0.01 C3.54 -0 4.45 0.01 5.38 0.02 C6.73 0 6.73 0 8.11 -0.01 C16.61 0.02 16.61 0.02 20.51 2.27 C23.47 5.76 24.58 7.59 24.38 12.18 C23.73 16.3 22.88 20.19 21.52 24.13 C20.33 27.82 19.62 31.53 18.95 35.33 C18.69 36.71 18.44 38.1 18.19 39.49 C17.97 40.73 17.74 41.98 17.51 43.27 C17.18 44.93 16.85 46.6 16.51 48.27 C15.85 48.27 15.19 48.27 14.51 48.27 C14.53 49.01 14.55 49.75 14.57 50.52 C14.51 53.04 14.13 54.85 13.51 57.27 C13.41 59.15 13.41 59.15 13.32 61.08 C12.84 65.41 10.95 67.65 7.98 70.72 C6.02 72.78 4.55 74.38 4.42 77.29 C4.47 78.07 4.52 78.84 4.57 79.64 C4.73 86.11 3.14 92.05 1.51 98.27 C0.85 98.27 0.19 98.27 -0.49 98.27 C-0.74 98.86 -0.99 99.46 -1.24 100.08 C-2.72 102.67 -3.92 103.76 -6.49 105.27 C-14.09 107.21 -21.4 107.11 -28.47 103.59 C-31.81 101.4 -33.89 98.91 -35.49 95.27 C-36.2 90.77 -35.23 87.14 -34.05 82.83 C-32.49 77.06 -32.04 71.55 -31.87 65.61 C-31.74 61.97 -31.57 60.38 -29.49 57.27 C-28.83 57.27 -28.17 57.27 -27.49 57.27 C-20.85 44.49 -18.42 31.46 -18.03 17.18 C-17.36 13.56 -15.96 11.96 -13.49 9.27 C-12.96 8.62 -12.44 7.98 -11.89 7.32 C-11.17 6.46 -11.17 6.46 -10.43 5.58 C-9.94 5 -9.46 4.42 -8.96 3.82 C-6.1 0.79 -4.02 0.01 0 0 Z " fill="#FAFCFC" transform="translate(734.4921875,49.734375)"/>
<path d="M0 0 C3.77 3.04 5.03 6.55 6.56 11.06 C6.79 11.72 7.02 12.37 7.25 13.04 C8.88 18.54 9.46 24.39 8.56 30.06 C6.21 32.82 4.55 33.75 1.13 34.82 C-2.17 36.42 -3.31 38.27 -5.31 41.31 C-8.62 46.09 -11.77 49.61 -16.44 53.06 C-17.1 53.06 -17.76 53.06 -18.44 53.06 C-18.7 53.64 -18.97 54.22 -19.24 54.82 C-22.6 61.12 -27.97 65.78 -33.74 69.84 C-36.05 71.51 -37.42 73.03 -38.88 75.5 C-40.27 77.79 -41.36 79.4 -43.44 81.06 C-44.06 81.19 -44.68 81.31 -45.31 81.44 C-47.74 81.96 -47.74 81.96 -49.88 84.56 C-52.71 87.33 -53.58 87.8 -57.44 88.06 C-58.12 88.11 -58.8 88.16 -59.51 88.21 C-64.84 88.44 -68.71 87.79 -73.44 85.06 C-77.27 81.34 -79.82 77.14 -81.44 72.06 C-81.16 67.59 -79.87 64.77 -77.44 61.06 C-77.09 60.32 -76.74 59.58 -76.38 58.81 C-75.44 57.06 -75.44 57.06 -73.44 56.06 C-73.11 55.4 -72.78 54.74 -72.44 54.06 C-70.95 53.57 -70.95 53.57 -69.44 53.06 C-67.22 51.03 -67.22 51.03 -65.62 47.75 C-63.69 44.29 -61.45 41.68 -58.44 39.06 C-57.78 39.06 -57.12 39.06 -56.44 39.06 C-56.44 38.4 -56.44 37.74 -56.44 37.06 C-54.23 35.51 -51.92 34.17 -49.6 32.79 C-47.04 30.74 -46.5 29.12 -45.44 26.06 C-41.4 21.5 -41.4 21.5 -38.48 20.18 C-35.94 18.79 -34.85 17.22 -33.19 14.88 C-29.72 10.27 -26 6.58 -21.44 3.06 C-20.88 2.63 -20.33 2.19 -19.76 1.74 C-13.76 -2.35 -6.78 -1.85 0 0 Z " fill="#FAFCFC" transform="translate(442.4375,614.9375)"/>
<path d="M0 0 C1.15 0.14 1.15 0.14 2.32 0.27 C4.44 0.62 4.44 0.62 7.44 1.62 C7.44 2.28 7.44 2.95 7.44 3.62 C8.28 3.83 9.13 4.04 10 4.25 C13.73 5.74 15.84 7.57 18.77 10.23 C21.38 12.42 24.08 13.29 27.34 14.09 C33.09 15.56 38.1 17.42 42.44 21.62 C42.44 22.28 42.44 22.95 42.44 23.62 C43.52 24.06 43.52 24.06 44.62 24.5 C45.55 24.87 46.48 25.24 47.44 25.62 C48.26 25.91 49.09 26.2 49.94 26.5 C52.87 27.82 54.97 29.59 57.44 31.62 C59.09 32.65 60.76 33.65 62.44 34.62 C64.45 35.9 66.45 37.17 68.45 38.45 C70.58 39.77 70.58 39.77 73.62 40.94 C77.65 43.36 79.61 46.34 81.44 50.62 C82.39 56.09 81.7 58.71 78.75 63.38 C75.93 67.23 73.14 70.51 68.62 72.38 C63.29 72.98 59.26 73.11 54.44 70.62 C53.26 70.62 52.09 70.62 50.88 70.62 C47.44 70.62 47.44 70.62 44.44 68.62 C43.49 68.36 42.54 68.09 41.56 67.81 C37.82 66.39 36.15 64.54 33.44 61.62 C32.37 60.71 31.28 59.82 30.19 58.94 C27.44 56.62 27.44 56.62 26.44 54.62 C24.82 54.52 23.19 54.5 21.56 54.5 C14.25 54 9.9 50.18 4.44 45.62 C1.6 43.31 -0.85 42.05 -4.31 40.88 C-9.58 38.85 -13.93 35.99 -17.56 31.62 C-17.56 30.63 -17.56 29.64 -17.56 28.62 C-18.22 28.62 -18.88 28.62 -19.56 28.62 C-19.95 25.96 -20.28 23.31 -20.56 20.62 C-20.65 19.87 -20.75 19.11 -20.84 18.34 C-21.15 13.91 -20.8 11.3 -17.94 7.81 C-12.63 2.42 -7.66 -0.96 0 0 Z " fill="#FAFCFC" transform="translate(888.5625,545.375)"/>
<path d="M0 0 C3.84 2.98 5.5 7.49 7 12 C7.51 19.44 6.7 26.46 5.43 33.78 C5.01 36.94 4.97 39.87 5.06 43.06 C5.17 48.33 4.21 52.74 2.79 57.79 C1.59 62.65 1.08 67.56 0.46 72.52 C-0.01 76.05 -0.67 79.44 -1.5 82.89 C-2.06 85.27 -2.5 87.66 -2.94 90.06 C-3.28 91.71 -3.64 93.36 -4 95 C-4.15 95.73 -4.29 96.45 -4.44 97.2 C-5.71 101.85 -7.7 103.88 -11.75 106.5 C-16 108.78 -19.13 109.78 -24 109 C-27.07 107.89 -28.72 106.28 -31 104 C-31.66 103.67 -32.32 103.34 -33 103 C-35.2 101.9 -36.41 100.87 -38 99 C-39.86 89.05 -40.3 77.03 -37.6 67.2 C-35.33 58.82 -34.65 50.72 -34.44 42.06 C-34.38 39.84 -34.31 37.63 -34.25 35.41 C-34.22 34.44 -34.2 33.47 -34.17 32.48 C-34 30 -34 30 -33 27 C-33.01 24 -33.13 21.01 -33.26 18.01 C-32.96 14.55 -32.05 12.77 -30 10 C-29.38 9.71 -28.76 9.42 -28.12 9.12 C-25.22 7.59 -24.04 5.36 -22.22 2.68 C-20.29 0.02 -18.25 -1.53 -15.19 -2.69 C-9.24 -3.54 -5.18 -3.18 0 0 Z " fill="#FAFCFC" transform="translate(598,690)"/>
<path d="M0 0 C2.24 -0.02 4.49 -0.06 6.73 -0.11 C8.16 -0.12 9.6 -0.12 11.03 -0.13 C12.33 -0.15 13.64 -0.16 14.98 -0.17 C19.79 0.45 22.82 2.46 26.16 5.93 C26.71 6.67 26.71 6.67 27.27 7.42 C29.45 10.42 29.45 10.42 32.58 12.3 C32.71 14.67 32.71 14.67 32.58 17.3 C32.89 18.29 32.89 18.29 33.21 19.3 C33.77 22.32 33.11 23.62 31.58 26.3 C27.17 31.23 23 33.23 16.58 34.3 C14.91 34.62 13.25 34.96 11.58 35.3 C10.82 35.44 10.06 35.58 9.27 35.73 C7.13 36.18 5 36.73 2.89 37.3 C-1.09 38.3 -4.87 38.61 -8.98 38.71 C-9.69 38.73 -10.39 38.75 -11.12 38.77 C-13.41 38.83 -15.69 38.88 -17.98 38.92 C-19.58 38.96 -21.17 38.99 -22.77 39.03 C-26.85 39.12 -30.93 39.19 -35.02 39.26 C-37.35 39.29 -39.68 39.34 -42.02 39.38 C-45.59 39.45 -49.16 39.49 -52.73 39.53 C-54.69 39.54 -56.65 39.58 -58.61 39.61 C-65.74 39.64 -71.45 39.64 -77.12 34.86 C-80.73 29.76 -82.06 24.51 -82.42 18.3 C-81.64 14.32 -80.66 11.76 -77.42 9.3 C-70.06 4.71 -63.38 2.93 -54.79 2.17 C-53.39 2.04 -53.39 2.04 -51.96 1.91 C-42.43 1.13 -32.91 1.16 -23.35 1.28 C-21.62 1.3 -21.62 1.3 -19.87 1.32 C-18.33 1.35 -18.33 1.35 -16.75 1.38 C-11.52 1.19 -5.77 0.03 0 0 Z " fill="#FAFCFC" transform="translate(985.417724609375,372.704833984375)"/>
<path d="M0 0 C1.25 1.62 1.25 1.62 2 4 C2.54 5.2 3.07 6.39 3.62 7.62 C6.77 16.42 4.95 23.64 1.42 32.08 C-0.97 37 -3.91 40.17 -8.19 43.56 C-11.19 46.16 -11.63 47.41 -13 51 C-14.49 53.57 -16.07 56.08 -17.66 58.6 C-19.08 60.87 -19.08 60.87 -19.44 63.14 C-20.22 65.75 -21.59 66.29 -23.88 67.69 C-27.99 70.59 -29.03 72.94 -30.32 77.7 C-32.91 86.41 -39.41 91.53 -46.88 96.17 C-52.12 98.22 -59.12 98.12 -64.34 96.09 C-68.5 93.36 -69.76 90.88 -71 86 C-71.97 77.94 -72.59 69.08 -67.37 62.43 C-65.61 60.59 -63.8 58.8 -62 57 C-60.4 54.11 -59.1 51.27 -57.94 48.19 C-57 46 -57 46 -55 45 C-54.61 44.32 -54.22 43.64 -53.81 42.94 C-52.21 40.34 -50.6 38.37 -48.56 36.12 C-44.9 32.03 -42.45 27.91 -40 23 C-35.6 14.2 -35.6 14.2 -32 13 C-31.69 12.38 -31.38 11.76 -31.07 11.12 C-27.55 4.12 -16.44 0.48 -9.38 -1.88 C-5.87 -2.06 -3.24 -1.28 0 0 Z " fill="#FAFCFC" transform="translate(851,96)"/>
<path d="M0 0 C1.05 0 1.05 0 2.12 0 C3.6 0 5.07 0.01 6.54 0.02 C8.8 0.04 11.06 0.05 13.32 0.04 C24.38 0.08 24.38 0.08 26.68 1.23 C28.7 1.3 30.73 1.31 32.75 1.29 C33.98 1.29 35.2 1.28 36.47 1.27 C39.05 1.24 41.63 1.22 44.21 1.19 C45.44 1.18 46.67 1.18 47.94 1.17 C49.07 1.16 50.19 1.14 51.35 1.13 C54.86 1.24 58.21 1.7 61.68 2.23 C63.06 2.32 64.45 2.38 65.84 2.41 C66.91 2.44 66.91 2.44 68 2.48 C69.45 2.52 70.91 2.55 72.36 2.57 C78.68 2.82 83.11 4.66 87.68 9.23 C88.55 9.75 89.41 10.26 90.3 10.79 C92.86 13.41 93.09 13.84 93.24 17.29 C92.83 24.28 90.5 30.7 86.43 36.36 C79.4 41.15 68.5 39.43 60.24 39.42 C59.51 39.42 58.77 39.42 58.02 39.42 C46.49 39.4 35 39.04 23.49 38.36 C22.79 38.32 22.09 38.28 21.37 38.24 C19.38 38.12 17.38 37.99 15.39 37.86 C14.26 37.79 13.13 37.72 11.96 37.64 C8.39 37.19 5.14 36.23 1.68 35.23 C-0.48 35.01 -0.48 35.01 -2.4 35.14 C-3.43 35.17 -3.43 35.17 -4.48 35.2 C-5.89 35.26 -7.3 35.33 -8.71 35.4 C-13.77 35.54 -13.77 35.54 -16.2 34.18 C-17.88 31.26 -18.46 28.2 -19.07 24.92 C-19.21 24.27 -19.35 23.61 -19.49 22.94 C-20.3 18.75 -20.51 15.34 -19.32 11.23 C-17.61 8.75 -17.61 8.75 -15.51 6.48 C-14.82 5.72 -14.13 4.96 -13.43 4.18 C-9.13 0.2 -5.83 -0.02 0 0 Z " fill="#FAFCFC" transform="translate(266.3203125,372.76953125)"/>
<path d="M0 0 C5.99 4.72 9.87 9.53 12.18 16.74 C13.63 19.05 15.16 21.28 16.75 23.5 C18.18 25.74 18.18 25.74 19.18 28.46 C19.68 29.59 19.68 29.59 20.18 30.74 C21.17 31.07 22.16 31.4 23.18 31.74 C24.72 33.45 24.72 33.45 26.25 35.55 C26.75 36.24 27.26 36.93 27.78 37.64 C29.11 39.63 30.15 41.59 31.18 43.74 C32.46 46.04 33.76 48.33 35.06 50.62 C36.18 52.74 36.18 52.74 37.18 55.74 C38.67 56.24 38.67 56.24 40.18 56.74 C43.57 63.39 43.58 69.39 43.18 76.74 C43.15 77.54 43.12 78.33 43.09 79.15 C42.84 82.51 42.38 84.48 40.31 87.18 C36.45 90.02 32.97 89.93 28.31 89.99 C27.09 90.02 25.88 90.04 24.63 90.07 C20.93 89.72 19.2 88.82 16.18 86.74 C15.19 86.41 14.2 86.08 13.18 85.74 C13.18 85.08 13.18 84.42 13.18 83.74 C12.58 83.49 11.97 83.23 11.34 82.96 C6.43 80.18 4.27 74.07 2.18 69.05 C-0.02 63.87 -3.14 60.86 -7.82 57.74 C-8.48 55.96 -8.48 55.96 -9 53.8 C-10.62 48.38 -13.72 44.45 -17.17 40.03 C-18.82 37.74 -18.82 37.74 -18.82 35.74 C-19.71 35.36 -19.71 35.36 -20.62 34.97 C-26.28 31.8 -29.93 24.71 -31.82 18.74 C-33.38 10.39 -32.89 2.71 -29.82 -5.26 C-29.16 -5.59 -28.5 -5.92 -27.82 -6.26 C-27.49 -6.92 -27.16 -7.58 -26.82 -8.26 C-17.64 -11.67 -7.28 -5.04 0 0 Z " fill="#FAFCFC" transform="translate(439.81640625,103.2578125)"/>
<path d="M0 0 C5.44 1.51 8.95 5.71 12.69 9.75 C13.32 10.4 13.94 11.05 14.58 11.73 C19.76 17.42 20.99 22.54 21.47 30.2 C21.56 31.41 21.56 31.41 21.65 32.66 C21.84 35.25 22.02 37.84 22.19 40.43 C23.2 56.28 23.2 56.28 26.25 71.83 C26.79 74.16 26.69 76.36 26.69 78.75 C27.02 79.08 27.35 79.41 27.69 79.75 C29.07 89.07 29.32 96.91 24.25 105.06 C23.74 105.62 23.22 106.17 22.69 106.75 C22.09 107.43 21.5 108.11 20.88 108.81 C17.33 111.95 14.11 113.5 9.44 114.31 C3.97 113.49 -0.08 111.29 -4.31 107.75 C-7.68 102.94 -7.93 96.47 -8.78 90.8 C-9.27 87.96 -9.97 85.32 -10.81 82.56 C-12.77 75.76 -13.38 68.81 -14.09 61.8 C-14.31 59.74 -14.57 57.7 -14.84 55.65 C-15.27 52.07 -15.51 48.54 -15.68 44.93 C-15.98 40.36 -16.58 36.31 -17.93 31.93 C-19.49 26.84 -19.2 22.92 -18.31 17.75 C-18.31 16.76 -18.31 15.77 -18.31 14.75 C-14.07 6.97 -9.64 -0.47 0 0 Z " fill="#FAFCFC" transform="translate(676.30859375,685.25390625)"/>
<path d="M0 0 C0.82 0.45 1.65 0.91 2.5 1.38 C5.24 2.07 5.24 2.07 7.5 2.38 C7.5 3.04 7.5 3.69 7.5 4.38 C8.22 4.48 8.94 4.58 9.69 4.69 C12.78 5.44 14.92 6.53 17.5 8.38 C17.5 9.04 17.5 9.69 17.5 10.38 C18.63 10.48 19.77 10.58 20.94 10.69 C24.91 11.18 28.4 12.28 32.15 13.64 C34.59 14.4 36.91 14.77 39.44 15.12 C45.54 16.27 49.74 19.53 54.5 23.38 C55.28 24.01 56.06 24.64 56.87 25.29 C63.25 30.64 63.25 30.64 63.7 35.61 C63.83 42.55 63.1 47.28 58.5 52.75 C53 57.22 44.24 55.91 37.5 55.38 C29.07 54.21 21.19 52.13 14.49 46.64 C11.88 44.98 9.55 44.83 6.5 44.38 C4.31 43.61 2.15 42.8 0 41.94 C-3.15 40.68 -6.28 39.45 -9.5 38.4 C-13.96 36.88 -18.13 34.82 -22.38 32.81 C-24.71 31.74 -26.96 30.84 -29.38 30 C-35.95 26.58 -40.44 20 -43.5 13.38 C-44.21 10.04 -44.05 8.31 -42.32 5.36 C-31.87 -9.25 -15.27 -7.09 0 0 Z " fill="#FAFCFC" transform="translate(314.5,271.625)"/>
<path d="M0 0 C0 0.66 0 1.32 0 2 C1.24 1.77 2.48 1.55 3.75 1.31 C6.79 0.92 7.71 0.85 10.5 2.31 C12 4 12 4 12 6 C12.99 6.5 12.99 6.5 14 7 C15.72 12.16 16.01 16.68 13.8 21.74 C11.3 26.1 9.64 28.9 5 31 C4.67 31.66 4.34 32.32 4 33 C-6.24 38.59 -17.98 42.82 -29.08 46.35 C-31.02 47.01 -32.87 47.79 -34.75 48.62 C-38 50 -38 50 -40.5 50.38 C-43.58 51.14 -45.49 52.85 -48 54.73 C-54.8 59.05 -63.15 59.63 -71 60 C-71.97 60.06 -72.93 60.13 -73.93 60.2 C-78.45 60.38 -81.35 60.3 -85.5 58.38 C-90.38 53.74 -91.2 49.98 -91.38 43.38 C-91.41 38.8 -91.13 36.4 -88 33 C-87.32 32.24 -86.64 31.47 -85.94 30.69 C-76.83 22.36 -69 19.63 -57.1 17.42 C-52.12 16.42 -47.96 15.3 -44 12 C-39.44 9 -39.44 9 -36 9 C-36 8.34 -36 7.68 -36 7 C-34.82 6.73 -33.65 6.46 -32.44 6.19 C-29.64 5.5 -27.4 4.72 -24.75 3.5 C-17.07 0.05 -8.29 -0.28 0 0 Z " fill="#FAFCFC" transform="translate(977,267)"/>
<path d="M0 0 C4.25 3.15 6.57 8.21 7.9 13.19 C8.58 18.69 9.02 23.4 6.02 28.19 C4.97 29.18 4.97 29.18 3.9 30.19 C3.19 31.5 2.5 32.83 1.9 34.19 C1.24 34.19 0.58 34.19 -0.1 34.19 C0.15 34.85 0.39 35.51 0.65 36.19 C1.01 40.57 -0.95 43.47 -3.1 47.19 C-3.76 47.19 -4.42 47.19 -5.1 47.19 C-5.37 47.88 -5.63 48.56 -5.91 49.27 C-7.25 52.56 -8.73 55.78 -10.23 59 C-10.77 60.17 -11.3 61.33 -11.86 62.52 C-12.27 63.4 -12.68 64.28 -13.1 65.19 C-13.76 65.19 -14.42 65.19 -15.1 65.19 C-14.77 66.18 -14.44 67.17 -14.1 68.19 C-15.23 74.88 -17.72 79.07 -22.1 84.19 C-22.84 85.88 -23.52 87.59 -24.16 89.32 C-25.87 93.91 -27.6 96.94 -32.1 99.19 C-34.51 99.5 -36.93 99.74 -39.35 99.94 C-40.66 100.06 -41.96 100.18 -43.3 100.3 C-48.16 100.16 -50.93 98.67 -54.87 95.98 C-56.85 93.11 -57.26 89.88 -57.85 86.5 C-58.06 85.48 -58.06 85.48 -58.27 84.44 C-59.19 79.42 -59.04 75.21 -58.1 70.19 C-56.6 68.44 -56.6 68.44 -55.1 67.19 C-54.91 66.39 -54.91 66.39 -54.71 65.57 C-53.83 62.15 -52.29 59.06 -50.79 55.88 C-50.49 55.24 -50.2 54.6 -49.89 53.94 C-47.37 48.57 -44.69 43.35 -41.16 38.57 C-38.6 34.38 -37.03 30.04 -35.33 25.45 C-27.9 5.69 -27.9 5.69 -19.37 0.54 C-13.51 -1.88 -6.01 -2.31 0 0 Z " fill="#FAFCFC" transform="translate(514.1015625,664.80859375)"/>
<path d="M0 0 C1.32 -0.03 2.63 -0.05 3.99 -0.08 C8.98 0.36 11.3 1.89 14.82 5.34 C19.18 10.61 21.7 14.97 23.02 21.71 C23.79 24.65 25.06 26.68 26.69 29.25 C28.47 32.59 30.22 35.94 31.97 39.29 C33.42 41.79 34.68 43.26 36.69 45.25 C37.43 47.09 37.43 47.09 38 49.19 C40.19 56.29 43.78 62.8 47.37 69.29 C48.73 72.35 48.99 74.13 48.81 77.44 C48.67 80.54 48.69 82.25 49.69 85.25 C48.95 90.14 47.67 94.9 43.94 98.31 C37.29 102.28 30.09 101.51 22.69 100.25 C18.7 98.76 17.94 97.73 15.94 93.94 C14.83 90.67 14.1 87.67 13.69 84.25 C12.2 83.75 12.2 83.75 10.69 83.25 C6.9 78.13 5.98 72.47 5.69 66.25 C5.03 66.25 4.37 66.25 3.69 66.25 C2.87 64.5 2.06 62.75 1.25 61 C0.8 60.03 0.35 59.05 -0.12 58.05 C-1.31 55.25 -1.31 55.25 -1.79 52.95 C-1.96 52.39 -2.13 51.83 -2.31 51.25 C-3.3 50.92 -4.29 50.59 -5.31 50.25 C-7.82 45.94 -9.46 41.93 -10.75 37.12 C-11.67 33.75 -12.52 31.72 -15 29.25 C-17.87 25.53 -17.91 23.43 -17.68 18.86 C-17 14.05 -15.48 9.59 -13.31 5.25 C-12.65 5.25 -11.99 5.25 -11.31 5.25 C-11.31 4.59 -11.31 3.93 -11.31 3.25 C-10.65 3.25 -9.99 3.25 -9.31 3.25 C-9.31 2.59 -9.31 1.93 -9.31 1.25 C-6.33 -0.24 -3.27 0.02 0 0 Z " fill="#FAFCFC" transform="translate(758.3125,663.75)"/>
<path d="M0 0 C1.13 0.04 2.27 0.08 3.43 0.11 C35.6 1.42 35.6 1.42 39.7 5.39 C42.25 10.97 42.92 16.66 41.83 22.72 C41.32 26.02 41.2 29.11 41.2 32.45 C41.19 33.67 41.19 34.88 41.19 36.14 C41.2 38.02 41.2 38.02 41.2 39.95 C41.2 41.21 41.2 42.47 41.19 43.76 C41.19 45.59 41.19 45.59 41.2 47.45 C41.2 49.1 41.2 49.1 41.2 50.79 C41.33 53.93 41.76 56.87 42.33 59.95 C42.48 61.49 42.59 63.03 42.64 64.57 C42.7 65.68 42.7 65.68 42.75 66.8 C42.14 69.88 40.73 70.97 38.33 72.95 C35.87 73.43 35.87 73.43 33.1 73.4 C32.06 73.4 31.02 73.4 29.95 73.4 C28.27 73.37 28.27 73.37 26.56 73.34 C25.41 73.33 24.27 73.33 23.08 73.32 C19.41 73.3 15.75 73.25 12.08 73.2 C9.59 73.18 7.1 73.16 4.62 73.14 C-1.48 73.1 -7.58 73.03 -13.67 72.95 C-13.19 71.74 -12.71 70.54 -12.22 69.3 C-8.09 58.26 -9.61 45.43 -9.8 33.85 C-9.82 31.98 -9.82 31.98 -9.83 30.07 C-9.85 28.94 -9.87 27.81 -9.88 26.65 C-9.67 23.95 -9.67 23.95 -7.67 21.95 C-7.01 21.62 -6.35 21.29 -5.67 20.95 C-5.79 18.55 -5.91 16.16 -6.05 13.76 C-6.08 13.09 -6.11 12.41 -6.14 11.72 C-6.37 7.75 -6.96 4.54 -8.67 0.95 C-5.47 -0.12 -3.36 -0.11 0 0 Z " fill="#F87698" transform="translate(670.671875,233.05078125)"/>
<path d="M0 0 C9.78 6.64 9.78 6.64 11.12 13.26 C11.2 14.35 11.29 15.45 11.37 16.57 C10.88 17.07 10.88 17.07 10.37 17.57 C10.29 19.6 10.29 21.63 10.31 23.66 C10.31 24.97 10.32 26.28 10.33 27.62 C10.35 28.68 10.35 28.68 10.36 29.75 C10.38 31.96 10.39 34.16 10.4 36.36 C10.44 42.63 10.48 48.9 10.54 55.17 C10.58 59.01 10.6 62.84 10.62 66.67 C10.62 68.13 10.64 69.58 10.66 71.03 C10.93 91.55 10.93 91.55 4.81 99.2 C0.71 103.19 -2.9 102.85 -8.38 102.95 C-9.18 102.99 -9.98 103.02 -10.8 103.06 C-14.91 103.12 -17.76 102.94 -21.08 100.36 C-25.53 95.49 -25.93 91.11 -25.92 84.7 C-25.93 83.92 -25.93 83.14 -25.94 82.34 C-25.96 79.78 -25.96 77.21 -25.96 74.65 C-25.97 72.86 -25.98 71.07 -25.99 69.28 C-26 65.53 -26 61.78 -26 58.03 C-26 53.24 -26.03 48.45 -26.06 43.66 C-26.08 39.96 -26.09 36.26 -26.09 32.57 C-26.09 30.8 -26.1 29.03 -26.11 27.27 C-26.13 24.79 -26.13 22.32 -26.11 19.84 C-26.13 19.12 -26.14 18.4 -26.15 17.65 C-26.08 12.27 -24.61 8.07 -21.63 3.57 C-15.6 -1.18 -7.02 -3.81 0 0 Z " fill="#FAFCFC" transform="translate(638.62890625,36.42578125)"/>
<path d="M0 0 C1.5 0.01 3 0.02 4.5 0.03 C8.15 0.05 11.79 0.08 15.44 0.12 C17.2 3.21 17.44 4.36 17.44 8.12 C18.76 7.79 20.08 7.47 21.44 7.12 C23.09 10.73 23.67 13.45 23.56 17.4 C23.55 18.39 23.53 19.38 23.52 20.4 C23.46 22.46 23.41 24.52 23.36 26.58 C23.27 32.25 23.62 36.76 25.44 42.12 C26.71 50.2 24 58.54 21.44 66.12 C21.12 67.08 20.81 68.03 20.49 69.02 C16.9 72.7 12.37 72.05 7.44 72.12 C6.76 72.14 6.08 72.15 5.37 72.16 C-0.17 72.23 -5.71 72.22 -11.25 72.19 C-12.93 72.18 -14.62 72.18 -16.3 72.17 C-20.39 72.16 -24.48 72.15 -28.56 72.12 C-28.56 71.8 -28.56 71.47 -28.56 71.12 C-26.51 70.9 -24.46 70.67 -22.41 70.44 C-20.55 70.31 -20.55 70.31 -19.56 69.12 C-17.9 69.08 -16.23 69.08 -14.56 69.12 C-14.74 68.54 -14.91 67.96 -15.09 67.36 C-15.7 64.48 -15.19 61.94 -14.82 59.06 C-14.23 52.42 -14.46 45.72 -14.5 39.06 C-14.51 37.51 -14.51 35.96 -14.51 34.42 C-14.52 30.65 -14.54 26.89 -14.56 23.12 C-13.9 23.12 -13.24 23.12 -12.56 23.12 C-12.73 22.46 -12.89 21.81 -13.06 21.12 C-13.49 18.58 -13.57 16.49 -13.5 13.94 C-13.12 10.1 -13.12 10.1 -15.56 8.12 C-18.13 7.48 -18.13 7.48 -20.56 7.12 C-20.56 6.47 -20.56 5.81 -20.56 5.12 C-22.21 4.79 -23.86 4.47 -25.56 4.12 C-25.56 3.47 -25.56 2.81 -25.56 2.12 C-17.07 -0.31 -8.74 -0.1 0 0 Z " fill="#C0598B" transform="translate(558.5625,233.875)"/>
<path d="M0 0 C4.79 0.09 9.57 0.2 14.36 0.32 C15.99 0.36 17.62 0.39 19.25 0.42 C21.59 0.47 23.93 0.53 26.27 0.59 C27 0.6 27.73 0.61 28.48 0.62 C32.17 0.73 33.85 0.9 37 3 C36.34 3 35.68 3 35 3 C35.47 3.6 35.95 4.2 36.44 4.81 C38.85 9.74 39.72 15.79 38.5 21.21 C37.88 24.65 37.92 27.89 37.97 31.39 C37.99 32.84 38 34.28 38.01 35.73 C38.03 37.99 38.06 40.24 38.1 42.5 C38.39 63.62 38.39 63.62 33.19 69.5 C28.82 73.72 23.02 73.14 17.29 73.1 C16.2 73.1 16.2 73.1 15.09 73.09 C12.79 73.09 10.49 73.08 8.19 73.06 C6.62 73.06 5.05 73.05 3.49 73.05 C-0.34 73.04 -4.17 73.02 -8 73 C-8 72.67 -8 72.34 -8 72 C-7.23 71.97 -6.46 71.95 -5.66 71.92 C-4.66 71.87 -3.66 71.81 -2.62 71.75 C-1.63 71.7 -0.63 71.66 0.4 71.61 C3.06 71.28 3.06 71.28 4.22 69.4 C9.3 54.92 9.3 54.92 7.98 40.06 C6.34 34.53 6.79 28.77 6.88 23.06 C6.88 21.9 6.89 20.74 6.9 19.54 C6.93 16.7 6.96 13.85 7 11 C6.34 10.67 5.68 10.34 5 10 C5.33 9.34 5.66 8.68 6 8 C4.68 8.33 3.36 8.66 2 9 C0.5 5.63 0 3.8 0 0 Z " fill="#D4618E" transform="translate(574,233)"/>
<path d="M0 0 C2.83 -0.11 5.66 -0.19 8.49 -0.25 C9.38 -0.29 10.26 -0.32 11.18 -0.36 C15.34 -0.42 17.43 -0.38 20.85 2.15 C21.6 3.13 22.35 4.12 23.12 5.13 C23.65 5.7 24.17 6.27 24.72 6.86 C29.46 12.3 30.04 16.93 30.06 24 C30.09 24.95 30.12 25.9 30.15 26.88 C30.31 33.75 30.31 33.75 29.12 36.13 C29.31 37.39 29.49 38.64 29.68 39.94 C30.41 45.08 28.97 47.86 26.12 52.13 C25.68 53.84 25.31 55.57 24.99 57.32 C24.83 58.22 24.66 59.12 24.49 60.05 C24.37 60.73 24.24 61.42 24.12 62.13 C25.44 62.46 26.76 62.79 28.12 63.13 C27.78 65.89 27.33 66.94 25.22 68.82 C16.46 74.02 8.77 73.84 -1.07 73.5 C-2.61 73.47 -4.15 73.45 -5.69 73.42 C-9.42 73.36 -13.15 73.25 -16.88 73.13 C-16.88 72.8 -16.88 72.47 -16.88 72.13 C-10.28 72.13 -3.68 72.13 3.12 72.13 C2.75 66.67 2.75 66.67 2.37 61.21 C2.33 60.53 2.29 59.84 2.24 59.14 C2.19 58.44 2.15 57.75 2.1 57.03 C2.12 55.13 2.12 55.13 3.12 52.13 C2.81 49.79 2.47 47.46 2.12 45.13 C2.03 42.66 1.99 40.2 1.99 37.73 C1.99 36.72 1.99 36.72 1.98 35.69 C1.98 34.28 1.99 32.87 1.99 31.47 C1.99 29.3 1.99 27.14 1.98 24.98 C1.98 23.61 1.98 22.23 1.99 20.86 C1.99 19.61 1.99 18.37 1.99 17.09 C2.12 14.13 2.12 14.13 3.12 12.13 C2.08 6.69 2.08 6.69 -1.88 3.13 C-4.1 2.76 -4.1 2.76 -6.55 2.71 C-7.44 2.68 -8.33 2.64 -9.25 2.6 C-10.18 2.57 -11.11 2.53 -12.07 2.5 C-13.01 2.46 -13.95 2.43 -14.92 2.39 C-17.24 2.29 -19.56 2.21 -21.88 2.13 C-21.88 1.8 -21.88 1.47 -21.88 1.13 C-14.59 0.66 -7.3 0.32 0 0 Z " fill="#FB8EA6" transform="translate(708.88037109375,546.8720703125)"/>
<path d="M0 0 C3.96 -0.06 7.92 -0.09 11.88 -0.12 C13 -0.14 14.13 -0.16 15.29 -0.18 C16.37 -0.18 17.45 -0.19 18.55 -0.2 C19.55 -0.21 20.54 -0.22 21.57 -0.23 C24 0 24 0 26 2 C26.67 4.61 26.67 4.61 27.19 7.75 C27.46 9.29 27.46 9.29 27.73 10.86 C28.02 14.2 27.84 16.76 27 20 C26.5 20.59 25.99 21.19 25.47 21.8 C23.52 24.72 23.67 26.61 23.74 30.09 C23.76 31.29 23.77 32.49 23.79 33.72 C23.81 34.97 23.84 36.21 23.88 37.5 C24.33 62.88 24.33 62.88 20 71 C19 72 19 72 16.96 72.11 C16.08 72.11 15.21 72.1 14.31 72.1 C13.36 72.09 12.42 72.09 11.45 72.09 C10.45 72.08 9.46 72.07 8.44 72.06 C7.44 72.06 6.44 72.05 5.42 72.05 C2.94 72.04 0.47 72.02 -2 72 C-1.67 71.01 -1.34 70.02 -1 69 C1.06 68.31 1.06 68.31 3 68 C2.86 67.46 2.71 66.93 2.56 66.38 C1.22 60.73 0.81 55.34 0.81 49.56 C0.81 48.86 0.81 48.17 0.81 47.45 C0.84 44.37 1.02 41.94 2 39 C1.37 37.65 0.7 36.32 0 35 C0 34.01 0 33.02 0 32 C-0.66 32 -1.32 32 -2 32 C-3 29 -3 29 -2 26.91 C-1.05 25.39 -0.09 23.87 0.87 22.35 C2.18 19.63 2.35 17.98 2 15 C1.34 14.01 0.68 13.02 0 12 C0.52 11.59 1.03 11.18 1.56 10.75 C3.24 9.13 3.24 9.13 2.81 7.06 C1.99 4.97 1.03 3 0 1 C0 0.67 0 0.34 0 0 Z " fill="#EB6C92" transform="translate(638,234)"/>
<path d="M0 0 C2.96 -0.15 5.92 -0.25 8.88 -0.34 C9.8 -0.39 10.71 -0.45 11.66 -0.51 C17.91 -0.63 17.91 -0.63 20.87 1.64 C24.08 5.24 25.82 8.18 25.94 13.16 C25.61 13.49 25.28 13.82 24.94 14.16 C24.84 16.36 24.81 18.56 24.81 20.76 C24.81 21.43 24.81 22.09 24.81 22.78 C24.81 24.2 24.81 25.62 24.81 27.04 C24.82 29.19 24.81 31.34 24.81 33.49 C24.77 41.78 24.77 41.78 25.51 50.03 C25.94 53.16 25.94 53.16 24.94 55.16 C25.06 57.67 25.22 60.16 25.44 62.66 C26.08 69.89 26.08 69.89 24.94 72.16 C18.01 72.16 11.08 72.16 3.94 72.16 C4.27 70.51 4.6 68.86 4.94 67.16 C4.98 64.55 4.97 61.96 4.9 59.35 C4.87 57.79 4.85 56.23 4.83 54.68 C4.82 53.87 4.8 53.06 4.79 52.22 C4.58 37.1 5.27 22.92 8.94 8.16 C7.62 8.16 6.3 8.16 4.94 8.16 C4.94 7.5 4.94 6.84 4.94 6.16 C4.14 5.85 3.33 5.54 2.51 5.22 C-0.06 4.16 -0.06 4.16 -1.06 3.16 C-2.76 3 -4.47 2.91 -6.19 2.84 C-7.22 2.8 -8.25 2.76 -9.32 2.72 C-10.41 2.68 -11.5 2.64 -12.62 2.6 C-13.71 2.55 -14.8 2.51 -15.93 2.47 C-18.64 2.36 -21.35 2.26 -24.06 2.16 C-24.06 1.83 -24.06 1.5 -24.06 1.16 C-18.08 0.82 -12.11 0.53 -6.13 0.29 C-4.09 0.2 -2.04 0.11 0 0 Z " fill="#FB829D" transform="translate(687.05712890625,546.83984375)"/>
<path d="M0 0 C2.71 3.67 3.38 6.31 3.4 10.83 C3.42 11.98 3.43 13.12 3.44 14.31 C3.44 15.54 3.44 16.77 3.43 18.04 C3.44 19.31 3.44 20.58 3.45 21.89 C3.46 24.57 3.46 27.25 3.45 29.94 C3.43 33.37 3.45 36.81 3.48 40.24 C3.51 43.53 3.5 46.81 3.5 50.1 C3.51 51.95 3.51 51.95 3.53 53.83 C3.52 55.55 3.52 55.55 3.5 57.3 C3.5 58.31 3.5 59.31 3.5 60.35 C2.87 63.71 1.62 64.88 -1 67 C-7.4 69.7 -14.76 69.24 -21.56 69.12 C-23.08 69.11 -23.08 69.11 -24.62 69.1 C-27.08 69.07 -29.54 69.04 -32 69 C-32 68.67 -32 68.34 -32 68 C-29.88 67.33 -27.75 66.66 -25.62 66 C-24.44 65.63 -23.26 65.26 -22.04 64.88 C-19 64 -19 64 -17 64 C-17.01 63.42 -17.02 62.84 -17.04 62.24 C-17.08 58.68 -17.07 55.39 -16.44 51.88 C-15.85 48.96 -15.85 48.96 -16.47 45.87 C-17.05 41.6 -17.13 37.52 -17.1 33.22 C-17.1 32.41 -17.09 31.6 -17.09 30.76 C-17.09 28.2 -17.08 25.63 -17.06 23.06 C-17.06 21.31 -17.05 19.56 -17.05 17.81 C-17.04 13.54 -17.02 9.27 -17 5 C-17.66 5 -18.32 5 -19 5 C-19 3.35 -19 1.7 -19 0 C-21.64 0 -24.28 0 -27 0 C-27 -0.33 -27 -0.66 -27 -1 C-18.61 -2.77 -8.09 -3.19 0 0 Z " fill="#FB829D" transform="translate(709,357)"/>
<path d="M0 0 C10.49 1.26 21.61 11.1 28 19 C47.59 46.49 51.46 81.01 46.39 113.71 C43.35 131.41 37.25 148.33 24 161 C24 160.01 24 159.02 24 158 C24.45 157.55 24.91 157.11 25.38 156.64 C27.48 154.51 28.06 152.52 29 149.69 C30.41 145.61 31.99 141.83 34 138 C35.23 134.31 34.68 131.38 34.12 127.62 C33.94 126.32 33.76 125.01 33.57 123.66 C33.24 121.57 32.89 119.47 32.44 117.4 C31.92 114.56 31.87 111.88 31.88 109 C31.87 107.48 31.87 107.48 31.87 105.94 C31.99 103.17 32.43 100.71 33 98 C34.62 82.64 36.09 65.62 31.66 50.66 C30.75 46.99 30.19 43.57 31.97 40.12 C32.33 39.57 32.69 39.01 33.06 38.44 C34.06 36.41 34.06 36.41 34 34 C31.52 29.23 28.35 25.18 25 21 C22 17.23 22 17.23 22 15 C21.48 14.76 20.97 14.53 20.44 14.28 C16.51 12.21 12.85 9.71 9.13 7.28 C6.16 5.34 3.23 3.48 0 2 C0 1.34 0 0.68 0 0 Z " fill="#F8A4B3" transform="translate(746,242)"/>
<path d="M0 0 C2.74 0.17 5.46 0.39 8.19 0.62 C8.96 0.67 9.73 0.72 10.52 0.76 C14.58 1.15 17.2 1.64 20 4.74 C21.99 7.98 22.69 9.76 22.88 13.5 C22.93 14.4 22.99 15.29 23.05 16.22 C23 19 23 19 22.5 21.77 C21.99 25.07 21.87 28.16 21.87 31.5 C21.87 32.72 21.86 33.93 21.86 35.19 C21.87 37.07 21.87 37.07 21.88 39 C21.87 40.26 21.87 41.52 21.86 42.81 C21.87 44.64 21.87 44.64 21.87 46.5 C21.87 47.6 21.87 48.71 21.87 49.84 C22 52.98 22.43 55.92 23 59 C23.15 60.54 23.26 62.08 23.31 63.62 C23.37 64.73 23.37 64.73 23.43 65.85 C22.8 68.99 21.49 70.04 19 72 C15.88 72.45 15.88 72.45 12.27 72.39 C10.97 72.38 9.67 72.36 8.34 72.35 C6.98 72.32 5.61 72.28 4.25 72.25 C2.87 72.23 1.49 72.21 0.11 72.2 C-3.26 72.15 -6.63 72.08 -10 72 C-10 71.67 -10 71.34 -10 71 C-6.7 71 -3.4 71 0 71 C1.57 67.52 2.24 64.88 2.16 61.07 C2.15 60.12 2.14 59.17 2.12 58.19 C2.1 57.18 2.08 56.17 2.06 55.12 C1.98 46.65 2.05 38.22 2.44 29.75 C2.48 28.79 2.52 27.83 2.56 26.84 C2.84 21.02 3.3 15.26 4.21 9.5 C3.89 5.68 2.03 3.22 0 0 Z " fill="#FB829D" transform="translate(690,234)"/>
<path d="M0 0 C1.83 0.75 1.83 0.75 2.83 1.75 C3.49 1.09 4.15 0.43 4.83 -0.25 C5.53 6.54 6.01 13.32 6.39 20.13 C6.43 20.9 6.48 21.67 6.52 22.47 C6.69 25.56 6.83 28.58 6.73 31.68 C6.76 32.36 6.79 33.05 6.83 33.75 C8.73 35.6 8.73 35.6 10.83 36.75 C10.64 39.07 10.64 39.07 9.83 41.75 C7.33 43.38 7.33 43.38 4.83 44.75 C4.5 45.74 4.17 46.73 3.83 47.75 C-0.52 51.38 -4.61 51.12 -9.98 50.94 C-10.77 50.93 -11.56 50.91 -12.37 50.9 C-14.31 50.87 -16.24 50.81 -18.17 50.75 C-17.84 49.76 -17.51 48.77 -17.17 47.75 C-18.16 46.41 -19.16 45.08 -20.17 43.75 C-21.32 39.81 -21.04 36.76 -20.3 32.75 C-20.11 31.74 -19.93 30.73 -19.74 29.69 C-19.46 28.24 -19.46 28.24 -19.17 26.75 C-19.06 25.95 -18.94 25.14 -18.82 24.3 C-17.09 17.54 -8.13 -0.92 0 0 Z " fill="#A5538A" transform="translate(505.171875,254.24609375)"/>
<path d="M0 0 C3.38 5.16 1.59 11.22 0.48 16.93 C-3.49 33.97 -13.6 46.27 -26 58 C-26.99 57.5 -26.99 57.5 -28 57 C-27.19 56.25 -26.38 55.5 -25.55 54.73 C-19.16 48.66 -14.34 43.3 -11 35 C-10.63 34.29 -10.25 33.58 -9.87 32.86 C-7.91 28.68 -10.76 23.61 -12.17 19.48 C-13.05 16.85 -13.88 14.21 -14.69 11.56 C-14.94 10.74 -15.19 9.92 -15.45 9.07 C-16 7 -16 7 -16 5 C-21.14 2.94 -25.67 2.66 -31.12 2.59 C-31.97 2.57 -32.83 2.55 -33.71 2.53 C-36.43 2.47 -39.15 2.42 -41.88 2.38 C-43.73 2.34 -45.58 2.3 -47.43 2.26 C-51.95 2.16 -56.48 2.08 -61 2 C-61 1.67 -61 1.34 -61 1 C-17.58 -0.19 -17.58 -0.19 0 0 Z " fill="#F8A3B3" transform="translate(792,547)"/>
<path d="M0 0 C0.33 0 0.66 0 1 0 C1 48.84 1 97.68 1 148 C0.34 147.67 -0.32 147.34 -1 147 C-2.06 140.6 -1.98 134.56 -1.57 128.11 C-0.93 116.35 -0.88 104.62 -0.92 92.84 C-0.94 89.14 -0.94 85.45 -0.95 81.75 C-0.96 73.94 -0.98 66.13 -1 58.31 C-1.02 49.18 -1.04 40.05 -1.06 30.92 C-1.06 27.28 -1.07 23.64 -1.09 20 C-1.09 17.79 -1.09 15.58 -1.1 13.36 C-1.1 12.35 -1.11 11.34 -1.11 10.3 C-1.11 9.38 -1.11 8.45 -1.11 7.5 C-1.12 6.7 -1.12 5.9 -1.12 5.07 C-1 3 -1 3 0 0 Z " fill="#FBFDFD" transform="translate(479,407)"/>
<path d="M0 0 C1.58 0.01 3.16 0.02 4.75 0.04 C5.55 0.04 6.36 0.04 7.19 0.05 C9.19 0.06 11.19 0.08 13.18 0.1 C13.84 1.42 14.5 2.74 15.18 4.1 C16.28 4.04 17.37 3.97 18.5 3.91 C22.18 4.1 22.18 4.1 24.12 5.6 C24.47 6.09 24.82 6.59 25.18 7.1 C24.52 8.42 23.86 9.74 23.18 11.1 C19.23 11.16 15.27 11.19 11.31 11.22 C10.18 11.24 9.05 11.26 7.89 11.27 C6.28 11.28 6.28 11.28 4.63 11.29 C3.14 11.31 3.14 11.31 1.61 11.32 C-0.82 11.1 -0.82 11.1 -2.82 9.1 C-3.48 7.19 -3.48 7.19 -4 5.04 C-4.18 4.32 -4.36 3.61 -4.55 2.88 C-4.64 2.29 -4.72 1.7 -4.82 1.1 C-3.82 0.1 -3.82 0.1 0 0 Z " fill="#FAFCFC" transform="translate(635.81640625,620.90234375)"/>
<path d="M0 0 C0.33 0 0.66 0 1 0 C1.33 38.28 1.66 76.56 2 116 C1.01 116.5 1.01 116.5 0 117 C-1.37 109.22 -2.17 102.27 -1.16 94.42 C-0.93 90.88 -1.76 88.29 -3 85 C-2.5 84.5 -2.5 84.5 -2 84 C-1.9 82.35 -1.87 80.7 -1.87 79.05 C-1.87 78 -1.86 76.94 -1.86 75.86 C-1.86 74.71 -1.87 73.56 -1.87 72.38 C-1.87 71.21 -1.87 70.04 -1.86 68.83 C-1.86 66.35 -1.87 63.87 -1.87 61.39 C-1.87 57.58 -1.87 53.77 -1.86 49.97 C-1.86 47.56 -1.87 45.16 -1.87 42.75 C-1.87 41.61 -1.86 40.46 -1.86 39.28 C-1.86 38.22 -1.87 37.17 -1.87 36.08 C-1.87 35.14 -1.87 34.21 -1.87 33.25 C-1.85 30.96 -1.85 30.96 -3 29 C-3.07 26.45 -3.09 23.93 -3.06 21.38 C-3.06 20.67 -3.05 19.96 -3.05 19.23 C-3.04 17.49 -3.02 15.74 -3 14 C-2.67 14 -2.34 14 -2 14 C-1.67 17.3 -1.34 20.6 -1 24 C-1.01 22.44 -1.02 20.87 -1.04 19.26 C-1.04 17.21 -1.05 15.17 -1.06 13.12 C-1.07 12.09 -1.08 11.06 -1.09 10 C-1.09 8.52 -1.09 8.52 -1.1 7.01 C-1.1 6.1 -1.11 5.19 -1.11 4.25 C-1 2 -1 2 0 0 Z " fill="#FA809C" transform="translate(658,430)"/>
<path d="M0 0 C4 3 4 3 4.75 5.53 C5.15 11.15 5 16.76 4.87 22.39 C4.78 28.91 4.78 28.91 7 35 C4.69 35 2.38 35 0 35 C0 23.45 0 11.9 0 0 Z " fill="#FAFCFC" transform="translate(661,512)"/>
<path d="M0 0 C3.54 2.15 4.55 6.28 6 10 C6 10.33 6 10.66 6 11 C-0.6 11 -7.2 11 -14 11 C-8.42 -0.59 -8.42 -0.59 0 0 Z " fill="#FAFCFC" transform="translate(609,343)"/>
<path d="M0 0 C1.29 0.01 2.59 0.01 3.92 0.02 C4.95 0.02 4.95 0.02 6 0.02 C8.2 0.03 10.4 0.04 12.6 0.05 C14.09 0.06 15.58 0.06 17.07 0.06 C20.73 0.08 24.38 0.09 28.04 0.11 C28.54 1.1 28.54 1.1 29.04 2.11 C27.79 2.15 27.79 2.15 26.52 2.19 C23.43 2.28 20.33 2.38 17.24 2.49 C15.25 2.55 13.25 2.61 11.26 2.67 C10 2.71 8.75 2.75 7.46 2.8 C6.3 2.83 5.14 2.87 3.95 2.91 C0.98 3 0.98 3 -1.96 4.11 C-1.96 30.84 -1.96 57.57 -1.96 85.11 C-2.29 85.11 -2.62 85.11 -2.96 85.11 C-3.11 74.18 -3.26 63.24 -3.4 52.31 C-3.47 47.23 -3.54 42.15 -3.61 37.08 C-3.68 32.18 -3.74 27.29 -3.8 22.39 C-3.83 20.52 -3.85 18.65 -3.88 16.78 C-3.92 14.16 -3.95 11.55 -3.98 8.94 C-3.99 8.16 -4.01 7.37 -4.02 6.57 C-4.04 4.75 -4 2.93 -3.96 1.11 C-2.96 0.11 -2.96 0.11 0 0 Z " fill="#FBF2EE" transform="translate(556.959228515625,426.886474609375)"/>
<path d="M0 0 C3.26 0.42 4.63 0.63 7 3 C9.09 3.5 9.09 3.5 11.5 3.75 C12.39 3.86 13.27 3.98 14.19 4.1 C16.06 4.32 17.94 4.55 19.81 4.77 C20.7 4.88 21.59 5 22.5 5.12 C23.31 5.22 24.13 5.32 24.97 5.42 C27 6 27 6 29 9 C20.09 9 11.18 9 2 9 C-0.47 4.05 -0.47 4.05 -1 1 C-0.67 0.67 -0.34 0.34 0 0 Z " fill="#FAFCFC" transform="translate(501,345)"/>
<path d="M0 0 C1.21 0.01 1.21 0.01 2.45 0.03 C3.37 0.04 3.37 0.04 4.31 0.06 C5.37 1.86 5.37 1.86 6.31 4.06 C5.44 7.31 5.44 7.31 4.31 10.06 C0.6 10.35 -2.99 10.5 -6.69 10.06 C-9 7.81 -9 7.81 -9.69 5.06 C-9.06 2.81 -9.06 2.81 -7.69 1.06 C-4.81 0.1 -2.99 -0.04 0 0 Z " fill="#FAFCFC" transform="translate(693.6875,343.9375)"/>
<path d="M0 0 C4.14 0.54 6.94 2.45 9.88 5.38 C10.81 8.19 10.81 8.19 10.88 10.38 C10.21 10.38 9.56 10.38 8.88 10.38 C8.88 11.04 8.88 11.69 8.88 12.38 C6.25 13.31 6.25 13.31 2.88 13.38 C-0.6 10.74 -2.9 7.84 -3.56 3.5 C-2.98 0.69 -2.83 0.5 0 0 Z " fill="#FAFCFC" transform="translate(481.125,255.625)"/>
<path d="M0 0 C2.3 -0.25 2.3 -0.25 5 0 C6.73 1.71 6.73 1.71 8.19 3.94 C10.11 7.01 10.11 7.01 13 9 C13.72 10.64 14.39 12.31 15 14 C12.59 15.61 11.46 16.08 8.56 15.56 C4.51 13.09 1.7 9.63 0.46 4.98 C0.23 3.33 0.1 1.67 0 0 Z " fill="#FAFAF9" transform="translate(492,592)"/>
<path d="M0 0 C0.66 0 1.32 0 2 0 C1.75 1.3 1.75 1.3 1.49 2.63 C1.29 3.79 1.08 4.94 0.88 6.12 C0.67 7.26 0.46 8.4 0.24 9.57 C-0.12 14.64 1.22 17.83 4 22 C3.67 22.33 3.34 22.66 3 23 C7.95 23.33 12.9 23.66 18 24 C18 24.33 18 24.66 18 25 C11.07 25 4.14 25 -3 25 C-6.39 18.22 -2.86 8.81 -1 2 C-0.67 1.34 -0.34 0.68 0 0 Z " fill="#B35689" transform="translate(485,281)"/>
<path d="M0 0 C0.33 0 0.66 0 1 0 C1.33 3.3 1.66 6.6 2 10 C2.33 10 2.66 10 3 10 C3 32.44 3 54.88 3 78 C2.67 78 2.34 78 2 78 C1.34 75.69 0.68 73.38 0 71 C0.5 70.5 0.5 70.5 1 70 C1.1 68.35 1.13 66.7 1.13 65.05 C1.13 64 1.14 62.94 1.14 61.86 C1.14 60.71 1.13 59.56 1.13 58.38 C1.13 57.21 1.13 56.04 1.14 54.83 C1.14 52.35 1.13 49.87 1.13 47.39 C1.13 43.58 1.13 39.77 1.14 35.97 C1.14 33.56 1.13 31.16 1.13 28.75 C1.13 27.61 1.14 26.46 1.14 25.28 C1.14 24.22 1.13 23.17 1.13 22.08 C1.13 21.14 1.13 20.21 1.13 19.25 C1.15 16.96 1.15 16.96 0 15 C-0.07 12.45 -0.09 9.93 -0.06 7.38 C-0.06 6.67 -0.05 5.96 -0.05 5.23 C-0.04 3.49 -0.02 1.74 0 0 Z " fill="#F87698" transform="translate(655,444)"/>
<path d="M0 0 C0 4.95 0 9.9 0 15 C-4 13 -4 13 -5.31 11.25 C-6.26 8.15 -5.86 6.1 -5 3 C-2.7 0 -2.7 0 0 0 Z " fill="#FAFCFC" transform="translate(586,547)"/>
<path d="M0 0 C0 4.95 0 9.9 0 15 C-4 13 -4 13 -6 10 C-5.66 6.64 -4.75 3.88 -3 1 C-1 0 -1 0 0 0 Z " fill="#FAFCFC" transform="translate(586,444)"/>
<path d="M0 0 C0.66 0.33 1.32 0.66 2 1 C2 5.62 2 10.24 2 15 C-1.08 12.95 -1.79 12.34 -3 9 C-3.54 3.68 -3.54 3.68 -1.5 1.12 C-1 0.75 -0.51 0.38 0 0 Z " fill="#FAFCFC" transform="translate(584,599)"/>
<path d="M0 0 C5.94 0 11.88 0 18 0 C17.67 0.99 17.34 1.98 17 3 C11.39 3 5.78 3 0 3 C0 2.01 0 1.02 0 0 Z " fill="#FBFDFD" transform="translate(538,342)"/>
<path d="M0 0 C4.77 0.54 8.25 2.74 12.19 5.31 C12.82 5.7 13.44 6.09 14.09 6.5 C17.36 8.61 19.73 10.23 21 14 C16.72 11.99 12.78 9.43 8.78 6.92 C5.91 5.14 3.06 3.44 0 2 C0 1.34 0 0.68 0 0 Z " fill="#FA9EAF" transform="translate(746,242)"/>
<path d="M0 0 C0.76 0.21 1.53 0.41 2.31 0.62 C2.62 2.94 2.62 2.94 2.31 5.62 C-0.19 7.44 -0.19 7.44 -2.69 8.62 C-3.68 7.97 -4.67 7.31 -5.69 6.62 C-6.06 4.12 -6.06 4.12 -5.69 1.62 C-2.69 -0.38 -2.69 -0.38 0 0 Z " fill="#FAFCFC" transform="translate(725.6875,225.375)"/>
<path d="M0 0 C2.62 0.31 2.62 0.31 4.44 2.31 C4.83 2.97 5.22 3.63 5.62 4.31 C4.97 4.97 4.3 5.63 3.62 6.31 C0 5.94 0 5.94 -3.38 5.31 C-3.38 0.44 -3.38 0.44 0 0 Z " fill="#FBFDFD" transform="translate(707.375,434.6875)"/>
<path d="M0 0 C0.66 0 1.32 0 2 0 C2.33 7.26 2.66 14.52 3 22 C2.34 22.33 1.68 22.66 1 23 C-0.37 15.06 -1.37 7.97 0 0 Z " fill="#F97C9A" transform="translate(657,524)"/>
<path d="M0 0 C8.78 -0.77 8.78 -0.77 11.78 1.11 C13.12 2.5 13.12 2.5 15 5 C14.67 5.99 14.34 6.98 14 8 C13.36 7.2 12.72 6.39 12.06 5.56 C8.1 2.25 5.03 2.12 0 2 C0 1.34 0 0.68 0 0 Z " fill="#FAFCF8" transform="translate(918,170)"/>
<path d="M0 0 C10.56 -0.37 10.56 -0.37 15 2 C14.67 2.66 14.34 3.32 14 4 C9.13 3.4 4.67 2.43 0 1 C0 0.67 0 0.34 0 0 Z " fill="#FA9AAC" transform="translate(719,236)"/>
<path d="M0 0 C1.65 1.65 3.3 3.3 5 5 C4.34 5.66 3.68 6.32 3 7 C1 6.81 1 6.81 -1 6 C-1.66 5.01 -2.32 4.02 -3 3 C-2.01 2.01 -1.02 1.02 0 0 Z " fill="#FAFCFC" transform="translate(792,273)"/>
<path d="M0 0 C4 1.33 8 2.67 12 4 C12 4.66 12 5.32 12 6 C7.03 5.5 3.36 4.45 -1 2 C-0.67 1.34 -0.34 0.68 0 0 Z " fill="#FAEFEC" transform="translate(521,612)"/>
<path d="M0 0 C1.32 0 2.64 0 4 0 C4.33 1.32 4.66 2.64 5 4 C2.62 5.06 2.62 5.06 0 6 C-0.66 5.67 -1.32 5.34 -2 5 C-1.12 1.12 -1.12 1.12 0 0 Z " fill="#FAFCFC" transform="translate(707,626)"/>
</svg>
