<svg width="16" height="16" viewBox="0 0 16 16" fill="none" xmlns="http://www.w3.org/2000/svg">
<g clip-path="url(#clip0_110_1840)">
<path d="M7.08325 2.66666H2.41659C2.06296 2.66666 1.72382 2.80713 1.47378 3.05718C1.22373 3.30723 1.08325 3.64637 1.08325 3.99999V13.3333C1.08325 13.6869 1.22373 14.0261 1.47378 14.2761C1.72382 14.5262 2.06296 14.6667 2.41659 14.6667H11.7499C12.1035 14.6667 12.4427 14.5262 12.6927 14.2761C12.9428 14.0261 13.0833 13.6869 13.0833 13.3333V8.66666" stroke="#4589FF" stroke-width="1.5" stroke-linecap="round" stroke-linejoin="round"/>
<path d="M12.0833 1.66665C12.3485 1.40144 12.7082 1.25244 13.0833 1.25244C13.4583 1.25244 13.818 1.40144 14.0833 1.66665C14.3485 1.93187 14.4975 2.29158 14.4975 2.66665C14.4975 3.04173 14.3485 3.40144 14.0833 3.66665L7.74992 9.99999L5.08325 10.6667L5.74992 7.99999L12.0833 1.66665Z" stroke="#4589FF" stroke-width="1.5" stroke-linecap="round" stroke-linejoin="round"/>
</g>
<defs>
<clipPath id="clip0_110_1840">
<rect width="16" height="16" fill="white"/>
</clipPath>
</defs>
</svg>
