<svg width="17" height="17" viewBox="0 0 17 17" fill="none" xmlns="http://www.w3.org/2000/svg">
<g id="Icons / Small">
<path id="Vector" d="M12.0698 12.643C10.9302 13.5116 9.54256 13.9929 8.10982 14.0163C3.44316 14.0163 0.776489 8.68296 0.776489 8.68296C1.60575 7.13756 2.75591 5.78736 4.14982 4.72296M6.70982 3.50963C7.16871 3.40221 7.63853 3.34852 8.10982 3.34963C12.7765 3.34963 15.4432 8.68296 15.4432 8.68296C15.0385 9.44003 14.5559 10.1528 14.0032 10.8096M9.52316 10.0963C9.34006 10.2928 9.11926 10.4504 8.87392 10.5597C8.62859 10.669 8.36376 10.7278 8.09522 10.7325C7.82668 10.7373 7.55993 10.6879 7.3109 10.5873C7.06186 10.4867 6.83564 10.337 6.64572 10.1471C6.4558 9.95715 6.30608 9.73092 6.2055 9.48189C6.10491 9.23285 6.05551 8.96611 6.06025 8.69757C6.06498 8.42902 6.12376 8.16419 6.23307 7.91886C6.34239 7.67353 6.49999 7.45273 6.69649 7.26963" stroke="#76C045" stroke-width="1.5" stroke-linecap="round" stroke-linejoin="round"/>
<path id="Vector_2" d="M0.776489 1.34961L15.4432 16.0163" stroke="#76C045" stroke-width="1.5" stroke-linecap="round" stroke-linejoin="round"/>
</g>
</svg>
