<svg width="17" height="17" viewBox="0 0 17 17" fill="none" xmlns="http://www.w3.org/2000/svg">
<path d="M12.0697 12.1426C10.9301 13.0113 9.54244 13.4925 8.1097 13.516C3.44303 13.516 0.776367 8.18262 0.776367 8.18262C1.60563 6.63722 2.75579 5.28703 4.1497 4.22262M6.7097 3.00929C7.16859 2.90188 7.63841 2.84818 8.1097 2.84929C12.7764 2.84929 15.443 8.18262 15.443 8.18262C15.0384 8.9397 14.5557 9.65245 14.003 10.3093M9.52303 9.59596C9.33994 9.79246 9.11913 9.95006 8.8738 10.0594C8.62847 10.1687 8.36364 10.2275 8.09509 10.2322C7.82655 10.2369 7.55981 10.1875 7.31077 10.087C7.06174 9.98636 6.83551 9.83664 6.6456 9.64673C6.45568 9.45681 6.30596 9.23059 6.20537 8.98155C6.10478 8.73252 6.05538 8.46577 6.06012 8.19723C6.06486 7.92869 6.12364 7.66385 6.23295 7.41852C6.34226 7.17319 6.49987 6.95239 6.69637 6.76929" stroke="currentColor" stroke-width="1.5" stroke-linecap="round" stroke-linejoin="round"/>
<path d="M0.776367 0.849274L15.443 15.5159" stroke="currentColor" stroke-width="1.5" stroke-linecap="round" stroke-linejoin="round"/>
</svg>
