<svg width="32" height="33" viewBox="0 0 32 33" fill="none" xmlns="http://www.w3.org/2000/svg">
<path d="M25.3333 15.166H6.66667C5.19391 15.166 4 16.3599 4 17.8327V27.166C4 28.6388 5.19391 29.8327 6.66667 29.8327H25.3333C26.8061 29.8327 28 28.6388 28 27.166V17.8327C28 16.3599 26.8061 15.166 25.3333 15.166Z" stroke="currentColor" stroke-width="1.5" stroke-linecap="round" stroke-linejoin="round"/>
<path d="M9.33325 15.166V9.83268C9.33325 8.06457 10.0356 6.36888 11.2859 5.11864C12.5361 3.86839 14.2318 3.16602 15.9999 3.16602C17.768 3.16602 19.4637 3.86839 20.714 5.11864C21.9642 6.36888 22.6666 8.06457 22.6666 9.83268V15.166" stroke="currentColor" stroke-width="1.5" stroke-linecap="round" stroke-linejoin="round"/>
</svg>
