<svg width="16" height="17" viewBox="0 0 16 17" fill="none" xmlns="http://www.w3.org/2000/svg">
<path d="M11.759 2.33158C11.9341 2.15649 12.142 2.01759 12.3708 1.92283C12.5995 1.82807 12.8447 1.7793 13.0924 1.7793C13.34 1.7793 13.5852 1.82807 13.814 1.92283C14.0427 2.01759 14.2506 2.15649 14.4257 2.33158C14.6008 2.50668 14.7397 2.71455 14.8345 2.94332C14.9292 3.17209 14.978 3.41729 14.978 3.66491C14.978 3.91254 14.9292 4.15774 14.8345 4.38651C14.7397 4.61528 14.6008 4.82315 14.4257 4.99825L5.4257 13.9982L1.75903 14.9982L2.75903 11.3316L11.759 2.33158Z" stroke="currentColor" stroke-width="1.5" stroke-linecap="round" stroke-linejoin="round"/>
</svg>
