<?xml version="1.0" standalone="no"?>
<!DOCTYPE svg PUBLIC "-//W3C//DTD SVG 20010904//EN"
 "http://www.w3.org/TR/2001/REC-SVG-20010904/DTD/svg10.dtd">
<svg version="1.0" xmlns="http://www.w3.org/2000/svg"
 width="20pt" height="20pt" viewBox="0 0 980.000000 980.000000"
 preserveAspectRatio="xMidYMid meet">

<g transform="translate(0.000000,980.000000) scale(0.100000,-0.100000)"
fill="#currentColor" stroke="none">
<path d="M4660 8390 c-1089 -78 -2065 -649 -2675 -1565 -417 -626 -621 -1378
-575 -2115 65 -1052 557 -1971 1396 -2607 728 -553 1683 -797 2590 -664 1070
158 2005 794 2541 1731 367 640 519 1379 437 2120 -67 602 -283 1160 -640
1655 -255 353 -586 666 -954 902 -460 294 -971 473 -1522 532 -140 16 -454 21
-598 11z m640 -970 c405 -68 759 -215 1090 -453 128 -92 193 -148 332 -289
467 -470 728 -1112 728 -1782 0 -316 -62 -641 -174 -921 -83 -209 -200 -422
-313 -572 -32 -42 -68 -90 -80 -106 -73 -100 -280 -301 -429 -418 -260 -204
-640 -385 -969 -462 -172 -40 -305 -57 -505 -64 -597 -19 -1144 157 -1633 525
-103 78 -317 283 -404 387 -294 351 -484 769 -565 1241 -29 173 -32 575 -5
754 112 746 546 1409 1182 1805 313 195 715 335 1080 374 149 16 519 5 665
-19z"/>
<path d="M4685 6983 c-79 -7 -268 -44 -353 -68 -334 -97 -631 -269 -881 -510
-250 -242 -427 -521 -535 -845 -76 -230 -106 -414 -106 -662 0 -720 362 -1376
980 -1771 206 -133 470 -235 740 -288 101 -20 146 -23 370 -23 237 0 265 2
390 27 481 95 922 357 1224 727 21 25 44 53 52 63 36 44 136 200 177 277 168
310 246 626 247 985 0 193 -10 290 -46 455 -84 375 -264 712 -527 986 -65 68
-154 152 -196 186 -305 246 -670 402 -1054 453 -107 14 -371 18 -482 8z m45
-772 c5 -11 10 -86 10 -172 0 -128 -3 -155 -17 -171 -14 -16 -35 -18 -206 -18
-163 0 -193 2 -209 17 -16 14 -18 34 -18 179 0 145 2 164 18 173 10 6 99 11
214 11 185 0 198 -1 208 -19z m768 7 c8 -8 12 -62 12 -175 0 -208 17 -194
-228 -193 -141 1 -184 5 -201 16 -20 14 -21 24 -21 179 0 146 2 165 18 174 26
15 405 14 420 -1z m742 -452 c0 -164 -10 -221 -55 -312 -54 -110 -149 -187
-270 -218 -42 -12 -108 -16 -232 -16 l-173 0 -2 -734 c-3 -690 -4 -735 -21
-754 -10 -11 -64 -38 -120 -60 -242 -96 -270 -105 -286 -95 -14 9 -16 95 -19
827 l-2 816 -160 0 -160 0 0 -731 0 -731 -27 -27 c-38 -37 -380 -168 -402
-154 -14 9 -16 97 -19 827 l-2 816 -140 0 -140 0 0 -115 0 -115 -225 0 -225 0
0 133 c0 73 5 160 11 192 30 165 160 303 318 339 61 14 186 16 985 16 l916 0
0 115 0 115 225 0 225 0 0 -134z"/>
</g>
</svg>
